<svg xmlns="http://www.w3.org/2000/svg" width="297.387" height="183.977" viewBox="0 0 297.387 183.977">
  <g id="undraw_preferences_popup_wbfw" transform="translate(0 -9.371)">
    <path id="Path_134" data-name="Path 134" d="M370.157,339.076a1.747,1.747,0,0,0-1.745,1.745v36.446a1.747,1.747,0,0,0,1.745,1.745H511.677a1.747,1.747,0,0,0,1.745-1.745V340.821a1.747,1.747,0,0,0-1.745-1.745Z" transform="translate(-309.511 -284.99)" fill="#d9d9d9"/>
    <path id="Path_135" data-name="Path 135" d="M509.841,477.046H368.32a2.911,2.911,0,0,1-2.908-2.908V339.984a2.911,2.911,0,0,1,2.908-2.908H509.841a2.911,2.911,0,0,1,2.908,2.908V474.138A2.911,2.911,0,0,1,509.841,477.046ZM368.32,338.239a1.747,1.747,0,0,0-1.745,1.745V474.138a1.747,1.747,0,0,0,1.745,1.745H509.841a1.747,1.747,0,0,0,1.745-1.745V339.984a1.747,1.747,0,0,0-1.745-1.745Z" transform="translate(-307.675 -283.765)" fill="#3f3d56"/>
    <g id="Rectangle_118" data-name="Rectangle 118" transform="translate(58 93.848)" fill="#fff" stroke="#707070" stroke-width="1">
      <rect width="146" height="99" stroke="none"/>
      <rect x="0.5" y="0.5" width="145" height="98" fill="none"/>
    </g>
    <path id="Path_122" data-name="Path 122" d="M762.711,323.632l-1.392,10.713-.841,6.5-.628,4.827L741.4,364.432,736,367.91a4.193,4.193,0,1,1-3.645-7.487l5.928-2.059,12.493-16.226.57-3.172,7.452-25.09c.76-1.272,1.272,3.365,2.326,2.326.314.349,2.435-3.862,2.714-3.49C766.441,316.176,763.281,319.235,762.711,323.632Z" transform="translate(-530.617 -268.834)" fill="#efbd7a"/>
    <path id="Path_123" data-name="Path 123" d="M597.807,386.979h-5.751V331.04l13.07-.261Z" transform="translate(-362.499 -201.686)" fill="#efbd7a"/>
    <path id="Path_124" data-name="Path 124" d="M666.792,386.979h5.751V331.04l-13.07-.261Z" transform="translate(-403.777 -201.686)" fill="#efbd7a"/>
    <circle id="Ellipse_16" data-name="Ellipse 16" cx="9.672" cy="9.672" r="9.672" transform="translate(232.693 14.864)" fill="#efbd7a"/>
    <path id="Path_125" data-name="Path 125" d="M852.692,281.256l-1.568,9.41-18.3,1.046V280.376c3.775-1.623,2.925-3.994,0-6.7l11.763-3.4c.44,3.9,1.133,7.518,4.375,8.4a6.5,6.5,0,0,1,3.57,2.367Z" transform="translate(-593.86 -242.866)" fill="#efbd7a"/>
    <path id="Path_126" data-name="Path 126" d="M844.18,527.756l-7.645-1.276L825.1,469.341l-12.34,57.139-8.7-1.14V458.232l36.334-8.626C844.69,460.313,844.513,516.223,844.18,527.756Z" transform="translate(-575.285 -352.664)" fill="#2f2e41"/>
    <path id="Path_127" data-name="Path 127" d="M789.319,673.7l-12.236-.112a3.977,3.977,0,0,1-4.932-3.861h0a3.977,3.977,0,0,1,2.253-3.584L777.2,664.8l9.071-6.2,6.535,1.83,1.252,5.632A6.43,6.43,0,0,1,789.319,673.7Z" transform="translate(-556.71 -480.624)" fill="#2f2e41"/>
    <path id="Path_128" data-name="Path 128" d="M874.264,673.519l-12.236-.112a3.977,3.977,0,0,1-4.932-3.861h0a3.977,3.977,0,0,1,2.253-3.584l2.791-1.343,9.071-6.2,6.535,1.83L879,665.881A6.431,6.431,0,0,1,874.264,673.519Z" transform="translate(-608.719 -480.515)" fill="#2f2e41"/>
    <path id="Path_129" data-name="Path 129" d="M819.649,235.336a4.493,4.493,0,0,1-6.852-5.027c1.043-3.382,3.672-6.685,9.988-6.556,12.808.261,14.463,13.083,10.238,18.174,0,0-.566-7.979-1.873-6.672s-3.4.523-3.4.523,1.046-4.966-3.921-2.875A22.717,22.717,0,0,0,819.649,235.336Z" transform="translate(-581.466 -214.379)" fill="#2f2e41"/>
    <path id="Path_130" data-name="Path 130" d="M843.5,355.108c-10.474,8.492-22.861,11.56-37.641,7.842,3.755-18.918,3.032-39.03,0-59.757a7.275,7.275,0,0,1,4.085-6.538l6.632-3.235c5.887,8.361,11.3,6.228,16.468-1.568l7.317,2.677a5.155,5.155,0,0,1,3.384,4.864C842.748,320.423,842.134,340.423,843.5,355.108Z" transform="translate(-577.349 -256.075)" fill="#fff"/>
    <path id="Path_131" data-name="Path 131" d="M792.623,338.337l-3.261-.671-1.14-.237-9.135-1.88-4.238-.872,7.169-20.922a17.731,17.731,0,0,1,9.558-10.445v.058Z" transform="translate(-558.362 -263.091)" fill="#fff"/>
    <path id="Path_132" data-name="Path 132" d="M903.791,402.852l-3.052,8.674a4.427,4.427,0,0,0,3.836,5.883h0a4.427,4.427,0,0,0,4.756-4.1l.734-10.454-.784-28.753-8.1.784Z" transform="translate(-635.287 -306.433)" fill="#efbd7a"/>
    <path id="Path_133" data-name="Path 133" d="M908.318,326.52l-17.252,4.966-.261-34.243h0a13.193,13.193,0,0,1,11.967,9.594Z" transform="translate(-629.358 -259.377)" fill="#fff"/>
    <path id="Path_40" data-name="Path 40" d="M486.63,480.772a2.306,2.306,0,1,0,0,4.611h79.13a2.306,2.306,0,0,0,.076-4.611H486.63Z" transform="translate(-380.482 -371.746)" fill="#e6e6e6"/>
    <path id="Path_40-2" data-name="Path 40" d="M486.63,511.772a2.306,2.306,0,1,0,0,4.611h79.13a2.306,2.306,0,0,0,.076-4.611H486.63Z" transform="translate(-380.482 -390.726)" fill="#e6e6e6"/>
    <path id="Path_40-3" data-name="Path 40" d="M486.63,542.772a2.306,2.306,0,1,0,0,4.611h79.13a2.306,2.306,0,0,0,.076-4.611H486.63Z" transform="translate(-380.482 -409.707)" fill="#e6e6e6"/>
    <path id="Path_40-4" data-name="Path 40" d="M486.63,573.772a2.306,2.306,0,1,0,0,4.611h79.13a2.306,2.306,0,0,0,.076-4.611H486.63Z" transform="translate(-380.482 -428.687)" fill="#e6e6e6"/>
    <path id="Path_40-5" data-name="Path 40" d="M486.63,604.772a2.306,2.306,0,1,0,0,4.611h79.13a2.306,2.306,0,0,0,.076-4.611H486.63Z" transform="translate(-380.482 -447.668)" fill="#e6e6e6"/>
    <path id="Path_40-6" data-name="Path 40" d="M486.63,635.772a2.306,2.306,0,1,0,0,4.611h79.13a2.306,2.306,0,0,0,.076-4.611H486.63Z" transform="translate(-380.482 -466.648)" fill="#e6e6e6"/>
    <path id="Path_136" data-name="Path 136" d="M414.939,375.877a9.266,9.266,0,1,1-2.714-6.592A9.305,9.305,0,0,1,414.939,375.877Z" transform="translate(-326.604 -301.824)" fill="#fff"/>
    <path id="Path_40-7" data-name="Path 40" d="M459.728,371.63a2.306,2.306,0,1,0,0,4.611h57.8a2.306,2.306,0,1,0,.076-4.611h-57.88Z" transform="translate(-364.01 -304.921)" fill="#fff"/>
    <path id="Path_40-8" data-name="Path 40" d="M459.728,397.63a2.306,2.306,0,1,0,0,4.611h95.027a2.306,2.306,0,1,0,.076-4.611h-95.1Z" transform="translate(-364.01 -320.84)" fill="#fff"/>
    <path id="Path_137" data-name="Path 137" d="M445.265,484.28a4.265,4.265,0,1,1,4.265-4.265,4.265,4.265,0,0,1-4.265,4.265Zm0-7.755a3.49,3.49,0,1,0,3.49,3.49A3.49,3.49,0,0,0,445.265,476.526Z" transform="translate(-353.955 -368.671)" fill="#e6e6e6"/>
    <path id="Path_138" data-name="Path 138" d="M445.265,515.28a4.265,4.265,0,1,1,4.265-4.265A4.265,4.265,0,0,1,445.265,515.28Zm0-7.755a3.49,3.49,0,1,0,3.49,3.49A3.49,3.49,0,0,0,445.265,507.526Z" transform="translate(-353.955 -387.652)" fill="#e6e6e6"/>
    <path id="Path_139" data-name="Path 139" d="M445.265,546.249a4.265,4.265,0,1,1,4.265-4.265A4.265,4.265,0,0,1,445.265,546.249Zm0-7.755a3.49,3.49,0,1,0,3.49,3.49A3.49,3.49,0,0,0,445.265,538.494Z" transform="translate(-353.955 -406.613)" fill="#e6e6e6"/>
    <path id="Path_140" data-name="Path 140" d="M445.265,577.249a4.265,4.265,0,1,1,4.265-4.265A4.265,4.265,0,0,1,445.265,577.249Zm0-7.755a3.49,3.49,0,1,0,3.49,3.49A3.489,3.489,0,0,0,445.265,569.494Z" transform="translate(-353.955 -425.594)" fill="#e6e6e6"/>
    <path id="Path_141" data-name="Path 141" d="M445.265,608.249a4.265,4.265,0,1,1,4.265-4.265A4.265,4.265,0,0,1,445.265,608.249Zm0-7.755a3.49,3.49,0,1,0,3.49,3.49A3.49,3.49,0,0,0,445.265,600.494Z" transform="translate(-353.955 -444.574)" fill="#e6e6e6"/>
    <path id="Path_142" data-name="Path 142" d="M445.265,639.249a4.265,4.265,0,1,1,4.265-4.265A4.265,4.265,0,0,1,445.265,639.249Zm0-7.755a3.49,3.49,0,1,0,3.49,3.49,3.49,3.49,0,0,0-3.49-3.49Z" transform="translate(-353.955 -463.555)" fill="#e6e6e6"/>
    <circle id="Ellipse_17" data-name="Ellipse 17" cx="1.939" cy="1.939" r="1.939" transform="translate(89.371 109.405)" fill="#d9d9d9"/>
    <circle id="Ellipse_18" data-name="Ellipse 18" cx="1.939" cy="1.939" r="1.939" transform="translate(89.371 133.444)" fill="#d9d9d9"/>
    <circle id="Ellipse_19" data-name="Ellipse 19" cx="1.939" cy="1.939" r="1.939" transform="translate(89.371 145.464)" fill="#d9d9d9"/>
    <rect id="Rectangle_117" data-name="Rectangle 117" width="297.387" height="0.775" transform="translate(0 192.573)" fill="#2f2e41"/>
  </g>
</svg>
