<svg xmlns="http://www.w3.org/2000/svg" width="153.708" height="200.076" viewBox="0 0 153.708 200.076">
  <g id="undraw_referral_4ki4" transform="translate(-12.97 0)">
    <path id="Path_82" data-name="Path 82" d="M613.208,425.364c-8.877,2.549-19.79,5.771-31.011,9.119-16.224,4.842-33.089,9.952-45.367,13.687l.008-.044a16.875,16.875,0,0,1,3.114-7.228c9.1-11.826,20.677-20.087,33.567-23.155h0a48.38,48.38,0,0,1,11.063-1.32A51.036,51.036,0,0,1,613.208,425.364Z" transform="translate(-460.759 -324.983)" fill="#f2f2f2"/>
    <ellipse id="Ellipse_10" data-name="Ellipse 10" cx="58.388" cy="4.354" rx="58.388" ry="4.354" transform="translate(34.764 177.607)" fill="#3f3d56"/>
    <path id="Path_85" data-name="Path 85" d="M525.119,66.822v166a7.462,7.462,0,0,1-7.46,7.455h-67.39a7.447,7.447,0,0,1-7.46-7.455v-166a7.459,7.459,0,0,1,7.461-7.46h10.084v1.293A6.143,6.143,0,0,0,466.5,66.8H500.77a6.092,6.092,0,0,0,3.642-1.2,5.7,5.7,0,0,0,.6-.507,6.125,6.125,0,0,0,1.9-4.438V59.362h10.748a7.458,7.458,0,0,1,7.46,7.46Z" transform="translate(-390.816 -59.362)" fill="#b7b7b7"/>
    <path id="Path_86" data-name="Path 86" d="M555.808,282.6c0,4.633-2.751,6.251-6.148,6.253l-.236,0q-.236,0-.467-.021c-3.066-.216-5.449-1.915-5.451-6.223,0-4.458,5.693-10.088,6.12-10.5h0l.024-.024S555.805,277.965,555.808,282.6Z" transform="translate(-465.726 -217.602)" fill="#fff"/>
    <path id="Path_87" data-name="Path 87" d="M559.468,288.142,561.716,285l-2.253,3.489-.006.361q-.236,0-.467-.021l.24-4.634,0-.036,0-.007.023-.438-2.263-3.5,2.269,3.168.006.093.181-3.5-1.937-3.613,1.961,3,.187-7.26v0l-.029,5.725,1.925-2.271-1.933,2.764-.049,3.135,1.8-3.01-1.805,3.471-.027,1.743,2.61-4.189-2.62,4.8Z" transform="translate(-475.758 -217.602)" fill="#3f3d56"/>
    <path id="Path_88" data-name="Path 88" d="M304.586,484.7H246.2v19.282l4.889-4.888h53.5Z" transform="translate(-182.244 -360.574)" fill="#fff"/>
    <rect id="Rectangle_98" data-name="Rectangle 98" width="32.848" height="2.663" transform="translate(76.98 127.622)" fill="#fff"/>
    <rect id="Rectangle_99" data-name="Rectangle 99" width="32.848" height="2.663" transform="translate(76.98 131.617)" fill="#fff"/>
    <path id="Path_89" data-name="Path 89" d="M246.2,382.2h58.388v19.282l-4.888-4.888H246.2Z" transform="translate(-182.244 -284.323)" fill="#fff"/>
    <rect id="Rectangle_100" data-name="Rectangle 100" width="32.848" height="2.663" transform="translate(73.907 101.628)" fill="#fff"/>
    <rect id="Rectangle_101" data-name="Rectangle 101" width="32.848" height="2.663" transform="translate(73.907 105.623)" fill="#fff"/>
    <path id="Path_90" data-name="Path 90" d="M480.515,205.808v47.016h63V205.808Zm8.118.592a1.015,1.015,0,1,1-1.015,1.015,1.015,1.015,0,0,1,1.015-1.015Zm-6.088,2.029a1.015,1.015,0,1,1,1.015-1.015,1.015,1.015,0,0,1-1.015,1.015Zm2.029-1.015a1.015,1.015,0,1,1,1.015,1.015A1.015,1.015,0,0,1,484.573,207.415ZM519.5,239.632H485.588v-25.2H519.5Z" transform="translate(-418.866 -168.305)" fill="#f2f2f2"/>
    <rect id="Rectangle_102" data-name="Rectangle 102" width="2.029" height="0.254" transform="translate(121.264 38.349)" fill="#fff"/>
    <rect id="Rectangle_103" data-name="Rectangle 103" width="2.029" height="0.254" transform="translate(121.264 39.11)" fill="#fff"/>
    <rect id="Rectangle_104" data-name="Rectangle 104" width="2.029" height="0.254" transform="translate(121.264 39.871)" fill="#fff"/>
    <rect id="Rectangle_105" data-name="Rectangle 105" width="15.306" height="0.761" transform="translate(105.959 45.706)" fill="#fff"/>
    <rect id="Rectangle_106" data-name="Rectangle 106" width="15.306" height="0.761" transform="translate(105.959 48.327)" fill="#fff"/>
    <rect id="Rectangle_107" data-name="Rectangle 107" width="15.306" height="0.761" transform="translate(105.959 50.948)" fill="#fff"/>
    <rect id="Rectangle_108" data-name="Rectangle 108" width="15.306" height="0.761" transform="translate(105.959 53.57)" fill="#fff"/>
    <rect id="Rectangle_109" data-name="Rectangle 109" width="15.306" height="0.761" transform="translate(105.959 56.191)" fill="#fff"/>
    <rect id="Rectangle_110" data-name="Rectangle 110" width="15.306" height="0.761" transform="translate(105.959 58.813)" fill="#fff"/>
    <rect id="Rectangle_111" data-name="Rectangle 111" width="15.306" height="0.761" transform="translate(105.959 61.434)" fill="#fff"/>
    <rect id="Rectangle_112" data-name="Rectangle 112" width="15.306" height="0.761" transform="translate(105.959 64.055)" fill="#fff"/>
    <rect id="Rectangle_113" data-name="Rectangle 113" width="15.306" height="0.761" transform="translate(105.959 66.677)" fill="#fff"/>
    <rect id="Rectangle_114" data-name="Rectangle 114" width="15.306" height="0.761" transform="translate(105.959 69.298)" fill="#fff"/>
    <circle id="Ellipse_11" data-name="Ellipse 11" cx="1.015" cy="1.015" r="1.015" transform="translate(67.737 72.089)" fill="#fff"/>
    <circle id="Ellipse_12" data-name="Ellipse 12" cx="1.015" cy="1.015" r="1.015" transform="translate(71.204 72.089)" fill="#fff"/>
    <circle id="Ellipse_13" data-name="Ellipse 13" cx="1.015" cy="1.015" r="1.015" transform="translate(74.671 72.089)" fill="#fff"/>
    <rect id="Rectangle_115" data-name="Rectangle 115" width="15.306" height="4.313" transform="translate(105.959 78.092)" fill="#fff"/>
    <path id="Path_91" data-name="Path 91" d="M355.084,594.882l-.561,19.637-5.985,23s1.309,3.927.374,4.862S343.675,645,343.675,645l3.553-49Z" transform="translate(-317.069 -457.741)" fill="#2f2e41"/>
    <path id="Path_92" data-name="Path 92" d="M335.341,778.761s-2.134,4.7.854,5.122,16.789,1.565,15.935-.854-11.24-4.7-11.24-4.7Z" transform="translate(-310.32 -594.214)" fill="#2f2e41"/>
    <path id="Path_93" data-name="Path 93" d="M306.431,526.792s2.244,12.156,3.74,14.213-.748,17.019-.748,17.019-3.366,21.507-1.87,24.873,1.122,2.244.935,4.114-.561,3.366,0,5.05a14.781,14.781,0,0,1,.748,2.431c.187.935,0,5.984,0,5.984s8.042,2.805,9.351-1.309c0,0-1.87-2.618-1.309-4.675a24.908,24.908,0,0,0,.935-6.359v-3.927l8.6-32.167,2.057-11.6s-.561-11.782-2.618-12.9S306.431,526.792,306.431,526.792Z" transform="translate(-289.363 -407.043)" fill="#2f2e41"/>
    <path id="Path_94" data-name="Path 94" d="M316.756,809.418s-2.805,6.172,1.122,6.733,22.068,2.057,20.946-1.122-14.775-6.172-14.775-6.172Z" transform="translate(-296.322 -616.919)" fill="#2f2e41"/>
    <circle id="Ellipse_14" data-name="Ellipse 14" cx="7.481" cy="7.481" r="7.481" transform="translate(16.509 50.933)" fill="#efbd7a"/>
    <path id="Path_95" data-name="Path 95" d="M312.932,299.417l.139,9.553,9.172.031s-2.328-7.479-1.285-9.042S312.932,299.417,312.932,299.417Z" transform="translate(-294.199 -237.698)" fill="#efbd7a"/>
    <path id="Path_96" data-name="Path 96" d="M312.531,341.6s-6.546-8.416-11.6-4.862-6.92,11.969-6.92,11.969l1.122,23.564s2.805,3.366,1.122,5.611-2.618,1.683-1.309,3.366,2.805,2.992,2.244,3.553.561.935.561.935l19.824.561s-.561-.748,1.122-2.992-.374-5.237,0-6.359.748.187.935-2.431S312.531,341.6,312.531,341.6Z" transform="translate(-280.127 -265.055)" fill="#fff"/>
    <path id="Path_97" data-name="Path 97" d="M359.011,541.251s.374,4.675,3.179,5.424a2.2,2.2,0,0,0,2.416-1.032,4.593,4.593,0,0,0,.147-5.153l-.693-1.109Z" transform="translate(-328.478 -416.453)" fill="#efbd7a"/>
    <path id="Path_98" data-name="Path 98" d="M290.691,319.437a32.7,32.7,0,0,0,0,4.3,1.788,1.788,0,0,1,0,1.683c-.374.561-.187,2.431.187,2.618s-.748,1.87-.374,2.992a8.112,8.112,0,0,0,.935,1.87c.187.374.488,1.044.488,1.044s5.5-11.7,9.985-8.9a32.528,32.528,0,0,0,8.042,3.74S307.523,315.7,290.691,319.437Z" transform="translate(-277.457 -252.335)" fill="#3f3d56"/>
    <path id="Path_99" data-name="Path 99" d="M305.3,355.217s-5.985.561-5.611,8.416-.561,20.2-.561,20.2,10.286,15.71,11.969,16.832,1.87.935,1.683,1.87-.374,1.683.374,2.431a6.456,6.456,0,0,0,1.5,1.122s5.985-2.057,5.424-3.927-3.179-4.862-3.179-4.862-4.488-7.294-4.675-8.416-.187-.935-.748-1.5-2.057-2.805-2.057-3.927V379.9l1.568-18.989a5.5,5.5,0,0,0-1.46-4.263A4.763,4.763,0,0,0,305.3,355.217Z" transform="translate(-283.93 -279.418)" fill="#3f3d56"/>
    <path id="Path_100" data-name="Path 100" d="M310.537,248.541a3.048,3.048,0,0,0,2.825-.647,2.307,2.307,0,0,0,.457-2.762,3.643,3.643,0,0,0-2.154-1.37A19.07,19.07,0,0,0,306,242.9a5.085,5.085,0,0,0-2.655.552c-.388.234-.716.556-1.1.8a13.711,13.711,0,0,1-2.325.9,5.964,5.964,0,0,0-3.4,3.6,7.18,7.18,0,0,0-.33,1.691A9.264,9.264,0,0,0,297,255.03c1.044,2.275,3.03,4.189,3.31,6.676,1.069-.9,1.383-2.4,2.211-3.527a4.573,4.573,0,0,1,2.5-1.694,1.453,1.453,0,0,0,.756-.338,1.253,1.253,0,0,0,.237-.681l.513-3.7a3.185,3.185,0,0,1,.823-2.068,2.925,2.925,0,0,1,1.226-.532,19.767,19.767,0,0,1,3.2-.522" transform="translate(-281.723 -195.897)" fill="#2f2e41"/>
    <path id="Path_101" data-name="Path 101" d="M302.68,477.514l10.5,13.624S303.511,483.057,302.68,477.514Z" transform="translate(-286.572 -370.43)" opacity="0.1"/>
    <path id="Path_102" data-name="Path 102" d="M98.424,359.249l-.1,12.867,6.1,9.146-4.989-10.255Z" transform="translate(-72.24 -267.249)" opacity="0.1"/>
    <path id="Path_103" data-name="Path 103" d="M780.612,749l-1.215-.9s-.8,4.493.093,5.166,4.263,1.795,4.263,3.141,7.629,3.141,7.853,1.122a4.45,4.45,0,0,0-.673-3.141s-3.59-3.59-4.039-4.263-1.571-2.019-1.571-2.019Z" transform="translate(-640.961 -571.72)" fill="#2f2e41"/>
    <path id="Path_104" data-name="Path 104" d="M797.96,526.289s-.034.2-.092.559c-.054.321-.128.774-.218,1.333-.942,5.751-3.691,22.68-3.5,23.239.224.673,1.795,3.141,0,3.814a1.392,1.392,0,0,0-.559.608,13.046,13.046,0,0,0-.949,2.239,98.387,98.387,0,0,0-2.877,11.517c-.289,1.512-.487,2.728-.545,3.366a1.825,1.825,0,0,0-.007.444c.224.9-1.346,4.039-2.019,4.936s-1.795,1.8-1.571,2.693-5.609,3.366-6.283,1.795a28.64,28.64,0,0,1-.9-2.917c-.224-.449-.449-3.59.673-4.039s.449-8.3,1.571-9.872a21.568,21.568,0,0,0,1.546-4.422c.236-.835.473-1.723.707-2.614.947-3.651,1.786-7.324,1.786-7.324l-.224-26.252,12.341-1.571.316.7.631,1.384Z" transform="translate(-640.358 -404.878)" fill="#2f2e41"/>
    <path id="Path_105" data-name="Path 105" d="M850.656,699.364s1.795-1.795,2.693,0,1.795,8.751,3.366,10.321,3.59,9.424,1.346,9.872-4.712-.673-4.936-2.019-4.936-8.3-4.936-8.975,3.141-3.141,3.141-3.141Z" transform="translate(-692.382 -534.873)" fill="#2f2e41"/>
    <path id="Path_106" data-name="Path 106" d="M750.058,483.48s2.917,26.252,3.59,28.72,4.263,11.892,5.385,13.463,8.3,14.36,9.2,15.033,2.693,2.468,2.693,2.468,3.366,3.366,3.814,4.039,4.263-1.346,4.487-2.693a13.834,13.834,0,0,0-.449-4.488c-.224-.9.449-2.244-.224-2.917s-4.039-4.039-4.039-5.609-5.834-10.77-8.077-12.789-1.8-5.385-1.8-5.385V499.635l12.341-3.814s-.673-10.77-2.244-10.77S752.526,481.461,750.058,483.48Z" transform="translate(-619.382 -374.41)" fill="#2f2e41"/>
    <circle id="Ellipse_15" data-name="Ellipse 15" cx="7.404" cy="7.404" r="7.404" transform="translate(141.446 56.791)" fill="#efbd7a"/>
    <path id="Path_107" data-name="Path 107" d="M804.951,321.721s-.9,3.366-2.019,4.263,2.917,4.712,2.917,4.712l7.629.449,1.346-4.263s-2.468-4.936-1.8-8.078S804.951,321.721,804.951,321.721Z" transform="translate(-658.569 -251.691)" fill="#efbd7a"/>
    <path id="Path_108" data-name="Path 108" d="M764.474,347.713s2.019.224,2.468.9,3.59,2.693,6.058,2.244,4.039-1.122,4.488-.9,1.346,4.936,1.346,4.936l-2.468,7.18.449,19.745.673,5.385s1.346-1.795-4.039-.673-12.341-.9-14.584-1.122-6.058-.9-6.282-2.244.673-6.283.673-6.283l3.59-15.033,2.244-8.078Z" transform="translate(-621.233 -273.87)" fill="#434343"/>
    <path id="Path_109" data-name="Path 109" d="M753.687,342.36s-1.9-1.007-2.571-.109-9.2,2.244-9.2,2.917-1.795,18.847-1.346,20.418-.9,3.366-.9,3.366l-1.571,6.731s-4.263,12.789-2.468,13.238a11.683,11.683,0,0,0,4.039,0c.673,0,.449-8.526,2.244-10.77s4.263-7.853,4.712-8.975,6.058-16.6,5.834-18.4S753.687,342.36,753.687,342.36Z" transform="translate(-608.323 -269.529)" fill="#fff"/>
    <path id="Path_110" data-name="Path 110" d="M829.862,347.713s1.8,0,2.019.449a24.56,24.56,0,0,0,3.366,4.039c.9.673,4.039,3.59,4.039,4.263s-6.507,5.609-6.507,5.609-2.692,13.238-1.346,17.726,3.366,15.258,2.468,15.931-2.917.9-2.917,0-1.346-10.546-2.468-12.565-4.487-14.809-3.141-18.4S829.862,347.713,829.862,347.713Z" transform="translate(-675.178 -273.87)" fill="#fff"/>
    <path id="Path_111" data-name="Path 111" d="M728.138,434.453s-.224,6.956,2.244,10.546a42.64,42.64,0,0,1,4.039,7.629s4.039-1.122,4.712-2.468,4.936-.224,4.936-.673-5.161-2.693-5.609-3.141-2.019-.449-2.917-1.346a5.939,5.939,0,0,1-1.122-2.917l-.9-5.834Z" transform="translate(-603.072 -338.396)" fill="#efbd7a"/>
    <path id="Path_112" data-name="Path 112" d="M793.2,272.074a4.267,4.267,0,0,1-1.661-.38,2.223,2.223,0,0,1-.568-3.292,4.253,4.253,0,0,1,.789-.634l1.706-1.161a8.342,8.342,0,0,1,2.406-1.277,7.511,7.511,0,0,1,2.46-.145,16.622,16.622,0,0,1,4.712.857,7.886,7.886,0,0,1,3.818,2.794,8.393,8.393,0,0,1,.669,7.32,24.827,24.827,0,0,1-3.795,6.571l-.772-3.769a1.391,1.391,0,0,0-.437-.9c-.694-.494-1.543.52-2.394.513a1.434,1.434,0,0,1-1.214-.961,5.478,5.478,0,0,1-.269-1.612c-.1-1.155-.505-2.761-1.6-3.4C796.028,272,794.343,272.178,793.2,272.074Z" transform="translate(-649.447 -212.444)" fill="#2f2e41"/>
    <path id="Path_113" data-name="Path 113" d="M802.735,533.966s.758,21.92,1.207,22.593,0-22.662,0-22.662Z" transform="translate(-658.569 -412.374)" opacity="0.1"/>
    <path id="Path_114" data-name="Path 114" d="M733.547,354.722h-1.795s-7.629,10.321-6.731,10.994,0,2.468,0,2.468l-1.795,3.366s-2.244,2.019-1.571,2.468a8.2,8.2,0,0,1,1.571,2.244s4.488-.673,5.834,2.019l2.91-3.674Z" transform="translate(-598.159 -279.084)" fill="#fff"/>
    <path id="Path_115" data-name="Path 115" d="M767.349,394.413a19.763,19.763,0,0,1-10.546-3.366l-5.609-2.468s-4.936-7.629-5.385-6.283.673,4.039.673,4.039-7.351,1.4-6.945,3.547c.083.442,3.8-.63,3.8-.63s-.673,4.263,3.141,4.487,4.936-.673,4.936-.673,16.155,13.462,18.847,9.2S767.349,394.413,767.349,394.413Z" transform="translate(-611.543 -299.478)" fill="#efbd7a"/>
    <path id="Path_116" data-name="Path 116" d="M850.679,378.379l2.468.9v6.731l.9,1.346s-.224,2.693-.9,3.366-2.019.449-1.571,2.019a8.5,8.5,0,0,1,.224,3.141s-4.039,5.161-4.263,4.488-3.366-8.975-3.814-8.975,4.488-13.014,4.488-13.014Z" transform="translate(-689.039 -296.682)" fill="#fff"/>
    <path id="Path_117" data-name="Path 117" d="M751.44,499.779s-2.32-2.244-1.16-2.356,5.2-2.356,5.872-1.234S751.44,499.779,751.44,499.779Z" transform="translate(-619.305 -384.089)" fill="#2f2e41"/>
  </g>
</svg>
