<svg id="undraw_select_house_qbag" xmlns="http://www.w3.org/2000/svg" width="183.516" height="208.478" viewBox="0 0 183.516 208.478">
  <ellipse id="Ellipse_8" data-name="Ellipse 8" cx="1.56" cy="27.747" rx="1.56" ry="27.747" transform="translate(67.109 208.389) rotate(-89.908)" fill="#e6e6e6"/>
  <path id="Path_66" data-name="Path 66" d="M418.8,256.015a70.929,70.929,0,1,1,50.154-20.775A70.929,70.929,0,0,1,418.8,256.015Zm0-141.292a70.363,70.363,0,1,0,70.363,70.363A70.442,70.442,0,0,0,418.8,114.723Z" transform="translate(-327.447 -104.958)" fill="#e6e6e6"/>
  <rect id="Rectangle_76" data-name="Rectangle 76" width="5.383" height="18.635" transform="translate(46.38 82.417)" fill="#f2f2f2"/>
  <path id="Path_67" data-name="Path 67" d="M55.319,305.285,42.226,289.708l-26.282.24L0,305.477l.322.207H.207v32.3H55.284v-32.3Z" transform="translate(0 -207.738)" fill="#f2f2f2"/>
  <path id="Path_68" data-name="Path 68" d="M107.832,289.825,91.475,309v29.067h29.4V305.354Z" transform="translate(-65.593 -207.822)" fill="#d8d8d8"/>
  <rect id="Rectangle_77" data-name="Rectangle 77" width="6.005" height="5.307" transform="translate(37.684 114.173)" fill="#3f3d56"/>
  <rect id="Rectangle_78" data-name="Rectangle 78" width="6.005" height="5.223" transform="translate(37.684 104.986)" fill="#3f3d56"/>
  <rect id="Rectangle_79" data-name="Rectangle 79" width="6.005" height="5.307" transform="translate(37.684 114.173)" fill="#fff"/>
  <rect id="Rectangle_80" data-name="Rectangle 80" width="6.005" height="5.223" transform="translate(37.684 104.986)" fill="#fff"/>
  <rect id="Rectangle_81" data-name="Rectangle 81" width="6.005" height="5.307" transform="translate(10.999 112.765)" fill="#3f3d56"/>
  <rect id="Rectangle_82" data-name="Rectangle 82" width="6.005" height="5.223" transform="translate(10.999 103.578)" fill="#3f3d56"/>
  <rect id="Rectangle_83" data-name="Rectangle 83" width="6.005" height="5.307" transform="translate(10.999 112.765)" fill="#fff"/>
  <rect id="Rectangle_84" data-name="Rectangle 84" width="6.005" height="5.223" transform="translate(10.999 103.578)" fill="#fff"/>
  <rect id="Rectangle_85" data-name="Rectangle 85" width="5.383" height="18.635" transform="translate(131.752 0.447)" fill="#3f3d56"/>
  <path id="Path_69" data-name="Path 69" d="M453.121,15.977V66.951H508.2V15.977h-.115l.322-.207L492.462.24,466.179,0,453.086,15.577Z" transform="translate(-324.89)" fill="#f2f2f2"/>
  <path id="Path_70" data-name="Path 70" d="M453.211,15.646V67.034h29.4V19.294L466.255.117Z" transform="translate(-324.979 -0.084)" fill="#d8d8d8"/>
  <rect id="Rectangle_86" data-name="Rectangle 86" width="6.005" height="5.307" transform="translate(139.827 32.203)" fill="#3f3d56"/>
  <rect id="Rectangle_87" data-name="Rectangle 87" width="6.005" height="5.223" transform="translate(139.827 23.016)" fill="#3f3d56"/>
  <rect id="Rectangle_88" data-name="Rectangle 88" width="6.005" height="5.307" transform="translate(139.827 32.203)" fill="#fff"/>
  <rect id="Rectangle_89" data-name="Rectangle 89" width="6.005" height="5.223" transform="translate(139.827 23.016)" fill="#fff"/>
  <rect id="Rectangle_90" data-name="Rectangle 90" width="6.005" height="5.307" transform="translate(166.512 30.795)" fill="#3f3d56"/>
  <rect id="Rectangle_91" data-name="Rectangle 91" width="6.005" height="5.223" transform="translate(166.512 21.608)" fill="#3f3d56"/>
  <rect id="Rectangle_92" data-name="Rectangle 92" width="6.005" height="5.307" transform="translate(166.512 30.795)" fill="#fff"/>
  <rect id="Rectangle_93" data-name="Rectangle 93" width="6.005" height="5.223" transform="translate(166.512 21.608)" fill="#fff"/>
  <rect id="Rectangle_94" data-name="Rectangle 94" width="6.005" height="5.307" transform="translate(139.827 50.876)" fill="#fff"/>
  <rect id="Rectangle_95" data-name="Rectangle 95" width="6.005" height="5.223" transform="translate(139.827 41.69)" fill="#fff"/>
  <rect id="Rectangle_96" data-name="Rectangle 96" width="6.005" height="5.307" transform="translate(166.512 49.468)" fill="#fff"/>
  <rect id="Rectangle_97" data-name="Rectangle 97" width="6.005" height="5.223" transform="translate(166.512 40.281)" fill="#fff"/>
  <circle id="Ellipse_9" data-name="Ellipse 9" cx="8.655" cy="8.655" r="8.655" transform="translate(85.966 42.268)" fill="#efbd7a"/>
  <path id="Path_71" data-name="Path 71" d="M578.7,289.167l14.736-.234c-1.267-3.493-1.817-6.763-.936-9.59l-11.228-1.17Q583.553,283.671,578.7,289.167Z" transform="translate(-492.972 -222.572)" fill="#efbd7a"/>
  <path id="Path_72" data-name="Path 72" d="M520.046,424.833l2.447,6.525a3.952,3.952,0,0,1-3.222,5.31h0a3.952,3.952,0,0,1-4.427-4.074l.289-7.527,2.105-38.595,8.655,2.573Z" transform="translate(-447.179 -300.229)" fill="#efbd7a"/>
  <path id="Path_73" data-name="Path 73" d="M287.407,523.572l7.017-.7,6.315-61.284,8.889,62.454,6.55-.234,1.637-68.535H286.471Z" transform="translate(-205.417 -326.456)" fill="#2f2e41"/>
  <path id="Path_74" data-name="Path 74" d="M595.555,232.166s-2.339,5.146-3.976,5.38-4.444,2.807-3.977,3.976.234,4.678-4.444,4.21-4.444-.936-4.444-.936-7.485-14.268.234-18.011S593.45,225.851,595.555,232.166Z" transform="translate(-490.642 -184.518)" fill="#2f2e41"/>
  <path id="Path_75" data-name="Path 75" d="M647.453,765.188l-.281,5.9s4.285,6.683-1.057,6.683h0c-3.863-.012-7.355,1.727-6.9-2.11l.645-5.417,1.125-5.9Z" transform="translate(-536.334 -571.186)" fill="#2f2e41"/>
  <path id="Path_76" data-name="Path 76" d="M562.276,765.188l.281,5.9s-4.285,6.683,1.057,6.683h0c3.863-.012,7.355,1.727,6.9-2.11l-.645-5.417-1.125-5.9Z" transform="translate(-480.227 -571.186)" fill="#2f2e41"/>
  <path id="Path_77" data-name="Path 77" d="M539.636,376.128l34.852-1.637c-6.5-20.858-6.548-37.926,1.637-53.641a8.415,8.415,0,0,0-5.086-7.728l-10.118-4.359-12.865.7-8.489,4.669a10.105,10.105,0,0,0-5.222,9.371C541.778,341.245,542.2,358.739,539.636,376.128Z" transform="translate(-461.155 -244.506)" fill="#fff"/>
  <path id="Path_78" data-name="Path 78" d="M526.2,342.541l-19.414-3.275,3.2-7.941a20.927,20.927,0,0,1,12.668-11.992l1.911-.65Z" transform="translate(-441.399 -251.62)" fill="#fff"/>
  <path id="Path_79" data-name="Path 79" d="M703.922,311.643l5.976-2.49a4.5,4.5,0,0,0,2.078-6.56h0a4.5,4.5,0,0,0-7.228-.532l-4.435,5.166L682.932,319.7,671.115,314.8l-1.408,9.8,14.763,3.845Z" transform="translate(-558.227 -238.575)" fill="#efbd7a"/>
  <path id="Path_80" data-name="Path 80" d="M654.92,341.437l9.62-9.054-2.546-3.112c-2.276-5.651-7.509-7.974-13.275-9.937l-1.911-.65-1.507,15.4Z" transform="translate(-540.725 -251.62)" fill="#fff"/>
</svg>
