<svg xmlns="http://www.w3.org/2000/svg" xmlns:xlink="http://www.w3.org/1999/xlink" width="414" height="736" viewBox="0 0 414 736">
  <defs>
    <linearGradient id="linear-gradient" x1="0.5" x2="0.5" y2="1" gradientUnits="objectBoundingBox">
      <stop offset="0" stop-color="#3a7bd5"/>
      <stop offset="1" stop-color="#00d2ff"/>
    </linearGradient>
    <filter id="Rectangle_420" x="-69.5" y="105.5" width="554" height="545" filterUnits="userSpaceOnUse">
      <feOffset dy="3" input="SourceAlpha"/>
      <feGaussianBlur stdDeviation="37.5" result="blur"/>
      <feFlood flood-color="#21a4e9" flood-opacity="0.231"/>
      <feComposite operator="in" in2="blur"/>
      <feComposite in="SourceGraphic"/>
    </filter>
    <clipPath id="clip-Background">
      <rect width="414" height="736"/>
    </clipPath>
  </defs>
  <g id="Background" clip-path="url(#clip-Background)">
    <rect width="414" height="736" fill="#fff"/>
    <rect id="Rectangle_419" data-name="Rectangle 419" width="414" height="374" fill="url(#linear-gradient)"/>
    <text id="Login" transform="translate(50 169)" fill="#fff" stroke="#fff" stroke-width="1" font-size="33" font-family="Avenir-Black, Avenir" font-weight="800"><tspan x="0" y="0">Login</tspan></text>
    <g transform="matrix(1, 0, 0, 1, 0, 0)" filter="url(#Rectangle_420)">
      <rect id="Rectangle_420-2" data-name="Rectangle 420" width="329" height="320" rx="18" transform="translate(43 215)" fill="#fff"/>
    </g>
    <g id="undraw_Access_account_re_8spm" transform="translate(218 30.773)">
      <path id="Path_1" data-name="Path 1" d="M242.56,669.379l-1.372-5.412a70.266,70.266,0,0,0-7.456-2.675l-.173,2.515-.7-2.771c-3.142-.9-5.28-1.293-5.28-1.293s2.887,10.98,8.943,19.374l7.057,1.24-5.482.791a28.444,28.444,0,0,0,2.451,2.6c8.81,8.177,18.622,11.929,21.917,8.38s-1.177-13.056-9.987-21.232a37.439,37.439,0,0,0-9.6-6.171Z" transform="translate(-227.576 -537.729)" fill="#f2f2f2"/>
      <path id="Path_2" data-name="Path 2" d="M322.478,617.245,324.1,611.9a70.269,70.269,0,0,0-5-6.144l-1.448,2.064.831-2.735c-2.226-2.392-3.852-3.836-3.852-3.836s-3.2,10.892-2.359,21.208l5.4,4.709-5.1-2.157a28.426,28.426,0,0,0,.756,3.492c3.315,11.554,9.775,19.838,14.43,18.5s5.741-11.784,2.427-23.339a37.438,37.438,0,0,0-5.025-10.243Z" transform="translate(-294.444 -491.473)" fill="#f2f2f2"/>
      <path id="Path_22" data-name="Path 22" d="M453.646,113.484h-.856V90.034a13.573,13.573,0,0,0-13.573-13.573H389.535a13.572,13.572,0,0,0-13.573,13.573V218.683a13.573,13.573,0,0,0,13.573,13.573h49.683a13.572,13.572,0,0,0,13.572-13.572V130.176h.856Z" transform="translate(-344.922 -76.461)" fill="#e6e6e6"/>
      <path id="Path_23" data-name="Path 23" d="M453.923,93.336h-6.485a4.816,4.816,0,0,1-4.459,6.634H414.517a4.816,4.816,0,0,1-4.459-6.634H404a10.136,10.136,0,0,0-10.136,10.136V231.934A10.136,10.136,0,0,0,404,242.069h49.922a10.136,10.136,0,0,0,10.136-10.136h0V103.471a10.136,10.136,0,0,0-10.136-10.136Z" transform="translate(-359.08 -89.806)" fill="#fff"/>
      <path id="Path_8" data-name="Path 8" d="M516.134,293.546H486.325a1.072,1.072,0,0,1-1.07-1.07V262.667a1.072,1.072,0,0,1,1.07-1.07h29.809a1.072,1.072,0,0,1,1.07,1.07v29.809A1.072,1.072,0,0,1,516.134,293.546Zm-29.809-31.521a.643.643,0,0,0-.642.642v29.809a.643.643,0,0,0,.642.642h29.809a.643.643,0,0,0,.642-.642V262.667a.643.643,0,0,0-.642-.642Z" transform="translate(-431.352 -222.869)" fill="#ccc"/>
      <rect id="Rectangle_1" data-name="Rectangle 1" width="45.718" height="0.428" transform="translate(45.72 93.527)" fill="#ccc"/>
      <circle id="Ellipse_2" data-name="Ellipse 2" cx="1.444" cy="1.444" r="1.444" transform="translate(45.72 87.966)" fill="#21a4e9"/>
      <rect id="Rectangle_2" data-name="Rectangle 2" width="45.718" height="0.428" transform="translate(45.72 107.964)" fill="#ccc"/>
      <circle id="Ellipse_3" data-name="Ellipse 3" cx="1.444" cy="1.444" r="1.444" transform="translate(45.72 102.404)" fill="#21a4e9"/>
      <path id="Path_153" data-name="Path 153" d="M602.512,644.911H588.063a.942.942,0,0,1-.941-.941v-5.064a.942.942,0,0,1,.941-.941h14.448a.942.942,0,0,1,.941.941v5.064A.942.942,0,0,1,602.512,644.911Z" transform="translate(-511.91 -520.506)" fill="#21a4e9"/>
      <circle id="Ellipse_7" data-name="Ellipse 7" cx="1.444" cy="1.444" r="1.444" transform="translate(50.43 87.966)" fill="#21a4e9"/>
      <circle id="Ellipse_8" data-name="Ellipse 8" cx="1.444" cy="1.444" r="1.444" transform="translate(55.139 87.966)" fill="#21a4e9"/>
      <circle id="Ellipse_9" data-name="Ellipse 9" cx="1.444" cy="1.444" r="1.444" transform="translate(50.43 102.404)" fill="#21a4e9"/>
      <circle id="Ellipse_10" data-name="Ellipse 10" cx="1.444" cy="1.444" r="1.444" transform="translate(55.139 102.404)" fill="#21a4e9"/>
      <path id="Path_154" data-name="Path 154" d="M780.845,541.977a2.093,2.093,0,0,1,.3.165l9.382-4,.335-2.472,3.749-.023-.221,5.669L782,544.586a2.226,2.226,0,0,1-.094.253,2.141,2.141,0,1,1-1.063-2.862Z" transform="translate(-662.723 -439.588)" fill="#efbd7a"/>
      <path id="Path_155" data-name="Path 155" d="M622.673,697.625h-2.565l-1.22-9.892h3.785Z" transform="translate(-489.426 -543.869)" fill="#efbd7a"/>
      <path id="Path_156" data-name="Path 156" d="M604.19,731.518h4.946v3.114h-8.06A3.114,3.114,0,0,1,604.19,731.518Z" transform="translate(-475.34 -578.495)" fill="#2f2e41"/>
      <path id="Path_157" data-name="Path 157" d="M666.754,694.341l-2.552.251-2.184-9.725,3.767-.371Z" transform="translate(-523.534 -541.31)" fill="#efbd7a"/>
      <path id="Path_158" data-name="Path 158" d="M3.114,0H8.06V3.114H0A3.114,3.114,0,0,1,3.114,0Z" transform="translate(135.674 153.038) rotate(-5.625)" fill="#2f2e41"/>
      <circle id="Ellipse_27" data-name="Ellipse 27" cx="5.138" cy="5.138" r="5.138" transform="translate(128.823 75.309)" fill="#efbd7a"/>
      <path id="Path_159" data-name="Path 159" d="M824.239,665.229a.936.936,0,0,1-.924-.773c-1.327-7.369-5.666-31.463-5.77-32.13a.288.288,0,0,1,0-.046v-1.8a.312.312,0,0,1,.058-.182l.573-.8a.309.309,0,0,1,.239-.131c3.268-.153,13.97-.6,14.487.044h0c.519.649.336,2.616.294,3l0,.04L838,663.2a.944.944,0,0,1-.777,1.074l-3,.495a.946.946,0,0,1-1.051-.647c-.929-2.968-4.043-12.952-5.123-16.816a.1.1,0,0,0-.205.029c.054,3.683.184,13.079.229,16.324l0,.349a.945.945,0,0,1-.856.949l-2.9.263C824.3,665.228,824.268,665.229,824.239,665.229Z" transform="translate(-694.13 -513.474)" fill="#2f2e41"/>
      <path id="Path_99" data-name="Path 99" d="M825.479,493.447a4.3,4.3,0,0,0-1.741,2.509,23.784,23.784,0,0,0-1.022,5.681l-.325,5.774-4.028,15.306c3.491,2.954,5.5,2.283,10.2-.134s5.236.806,5.236.806l.94-13.024,1.342-14.231a6.311,6.311,0,0,0-1.017-.978,10.388,10.388,0,0,0-8.878-1.882Z" transform="translate(-694.779 -405.841)" fill="#fff"/>
      <path id="Path_160" data-name="Path 160" d="M834.957,553.2a2.205,2.205,0,0,1,.314.147l9.277-4.643.154-2.516,3.827-.264.205,5.734-12.4,4.1a2.2,2.2,0,1,1-1.379-2.559Z" transform="translate(-705.565 -447.716)" fill="#efbd7a"/>
      <path id="Path_101" data-name="Path 101" d="M884.216,507.364c2.282.806,2.685,9.533,2.685,9.533-2.685-1.477-5.908.94-5.908.94s-.671-2.282-1.477-5.236a5.131,5.131,0,0,1,1.074-4.833A3.656,3.656,0,0,1,884.216,507.364Z" transform="translate(-742.976 -417.007)" fill="#fff"/>
      <path id="Path_102" data-name="Path 102" d="M853.16,435.282c-.64-.512-1.514.419-1.514.419l-.512-4.609a18.3,18.3,0,0,1-5.249-.128c-2.048-.511-2.369,1.857-2.369,1.857a16.451,16.451,0,0,1-.064-2.881c.128-1.152,1.792-2.3,4.737-3.073s4.481,2.561,4.481,2.561C854.719,430.452,853.8,435.794,853.16,435.282Z" transform="translate(-714.592 -353.476)" fill="#2f2e41"/>
      <path id="user" d="M5.4,6.167A3.083,3.083,0,1,0,2.313,3.083,3.083,3.083,0,0,0,5.4,6.167Zm2.158.771h-.4a4.194,4.194,0,0,1-3.512,0h-.4A3.239,3.239,0,0,0,0,10.176v1a1.157,1.157,0,0,0,1.156,1.156h8.48a1.157,1.157,0,0,0,1.156-1.156v-1A3.239,3.239,0,0,0,7.555,6.938Z" transform="translate(64.419 48.64)" fill="#c7c7c7"/>
    </g>
  </g>
</svg>
