<svg xmlns="http://www.w3.org/2000/svg" xmlns:xlink="http://www.w3.org/1999/xlink" width="138.423" height="136" viewBox="0 0 138.423 136">
  <defs>
    <linearGradient id="linear-gradient" x1="146.593" y1="1" x2="146.593" gradientUnits="objectBoundingBox">
      <stop offset="0" stop-color="gray" stop-opacity="0.251"/>
      <stop offset="0.535" stop-color="gray" stop-opacity="0.122"/>
      <stop offset="1" stop-color="gray" stop-opacity="0.102"/>
    </linearGradient>
  </defs>
  <g id="undraw_click_here_2li1" transform="translate(0 0.398)">
    <path id="Path_185" data-name="Path 185" d="M361.324,34.6v9.79l-9.057-3.975L348.592,38.8l-2.86-1.255-14.7-6.455-2.86-1.255-3.676-1.614L271.6,5h22.3Z" transform="translate(-222.901 -4.103)" fill="#f2f2f2"/>
    <circle id="Ellipse_28" data-name="Ellipse 28" cx="12" cy="12" r="12" transform="translate(106.829 -0.398)" fill="#fff"/>
    <path id="Path_186" data-name="Path 186" d="M902.152,426.171a2.152,2.152,0,1,1,2.152-2.152A2.152,2.152,0,0,1,902.152,426.171Zm0-3.945a1.793,1.793,0,1,0,1.793,1.793A1.793,1.793,0,0,0,902.152,422.226Z" transform="translate(-776.997 -359.11)" fill="#3f3d56"/>
    <path id="Path_187" data-name="Path 187" d="M218.662,259.529H214v-4.662h4.662Zm-4.3-.359H218.3v-3.945h-3.945Z" transform="translate(-214 -222.054)" fill="#3f3d56"/>
    <path id="Path_188" data-name="Path 188" d="M605.662,80.529H601V75.867h4.662Zm-4.3-.359H605.3V76.226h-3.945Z" transform="translate(-531.609 -75.15)" fill="#3f3d56"/>
    <rect id="Rectangle_422" data-name="Rectangle 422" width="33.351" height="27.075" transform="translate(21.248 29.159)" fill="#fff"/>
    <rect id="Rectangle_423" data-name="Rectangle 423" width="92.342" height="2.869" transform="translate(21.248 64.482)" fill="#f2f2f2"/>
    <path id="Path_189" data-name="Path 189" d="M352.209,251.921H318.5V224.487h33.709Zm-33.351-.359h32.992V224.846H318.859Z" transform="translate(-299.763 -197.122)" fill="#3f3d56"/>
    <rect id="Rectangle_424" data-name="Rectangle 424" width="32.275" height="2.869" transform="translate(67.867 36.6)" fill="#fff"/>
    <rect id="Rectangle_425" data-name="Rectangle 425" width="45.723" height="2.869" transform="translate(67.867 44.31)" fill="#fff" opacity="0.3"/>
    <rect id="Rectangle_426" data-name="Rectangle 426" width="92.342" height="2.869" transform="translate(21.248 73.447)" fill="#f2f2f2"/>
    <rect id="Rectangle_427" data-name="Rectangle 427" width="92.342" height="2.869" transform="translate(21.248 82.412)" fill="#f2f2f2"/>
    <rect id="Rectangle_428" data-name="Rectangle 428" width="92.342" height="2.869" transform="translate(21.248 91.377)" fill="#f2f2f2"/>
    <rect id="Rectangle_429" data-name="Rectangle 429" width="92.342" height="2.869" transform="translate(21.248 100.343)" fill="#f2f2f2"/>
    <rect id="Rectangle_430" data-name="Rectangle 430" width="92.342" height="2.869" transform="translate(21.248 109.308)" fill="#f2f2f2"/>
    <path id="Path_198" data-name="Path 198" d="M394.7,252.948H289V136.487H394.7Zm-105.342-.359H394.342V136.845H289.359Z" transform="translate(-275.552 -124.9)" fill="#3f3d56"/>
    <path id="Path_199" data-name="Path 199" d="M276.318,790.847l-.018.009c.213-.461.412-.927.593-1.4.022-.056.041-.113.063-.169,0,.014,0,.029,0,.045-.005.09-.013.179-.02.271-.011.142-.02.285-.022.429,0,.045,0,.088,0,.133a2.623,2.623,0,0,0,.054.52h-.007c-.045,0-.086.005-.129.013a1.757,1.757,0,0,0-.49.14Z" transform="translate(-265.129 -660.65)" fill="url(#linear-gradient)"/>
    <path id="Path_200" data-name="Path 200" d="M266.726,384.035c.019.749.273,1.474.313,2.222-2.205.11-4.38-.96-6.563-.632a3.025,3.025,0,0,0,1.129-1.807,7.5,7.5,0,0,0,.215-2.777,1.23,1.23,0,0,0-.027-.154,4,4,0,0,1-.235-1.172c.074-.381.433-.306.757-.284a28.348,28.348,0,0,1,2.943.38c.254.044,2.725.661,2.762.6a11.627,11.627,0,0,0-1.07,2.2A4.3,4.3,0,0,0,266.726,384.035Z" transform="translate(-252.142 -324.266)" fill="#efbd7a"/>
    <path id="Path_201" data-name="Path 201" d="M396.581,371.06a3.224,3.224,0,0,1-.673.679c-.167.137-.339.277-.518.4a2.223,2.223,0,0,1-1.1.448,2.889,2.889,0,0,1-1.966-.723,1.3,1.3,0,0,1-.188-.753,3.462,3.462,0,0,1,.181-1.053,5.871,5.871,0,0,1,.85-1.539,4.53,4.53,0,0,1,1.367-1.367,5.3,5.3,0,0,1,.581-.267l1.027-.421a.5.5,0,0,1,.187-.049c.276,0,.326.424.17.651-.313.458-1.016.586-1.214,1.105a.788.788,0,0,1,.732.568.4.4,0,0,0,.1.229c.091.073.232.032.335.086.182.1.1.369.122.575a2.691,2.691,0,0,0,.188.517A1.1,1.1,0,0,1,396.581,371.06Z" transform="translate(-360.19 -313.603)" fill="#efbd7a"/>
    <path id="Path_202" data-name="Path 202" d="M247.432,795.027a.782.782,0,0,1,.684-.1,25.367,25.367,0,0,0,3.846.311c.161-.788-.307-1.553-.458-2.342a2.112,2.112,0,0,0-.152-.592,1.358,1.358,0,0,0-.975-.588c-.693-.146-1.777-.4-2.164.3A10.512,10.512,0,0,0,247.432,795.027Z" transform="translate(-241.438 -662.501)" fill="#65617d"/>
    <path id="Path_203" data-name="Path 203" d="M288,777.184a4.059,4.059,0,0,1-1.8.548,5.763,5.763,0,0,0-1.844.421,12.168,12.168,0,0,1-1.425.815,2.968,2.968,0,0,1-1.48.023,2.193,2.193,0,0,1-1.522-.827,2.538,2.538,0,0,1-.213-1.545q.068-.895.133-1.792a.854.854,0,0,1,.111-.433c.422-.616,1.449.258,2,.256a3.865,3.865,0,0,0,2.434-1.05.74.74,0,0,1,.189-.143c.248-.111.5.095.717.274l.074.06a4.723,4.723,0,0,0,1.82.649,1.969,1.969,0,0,1,1.5,1.112.943.943,0,0,1,.03.119A1.57,1.57,0,0,1,288,777.184Z" transform="translate(-267.917 -647.632)" fill="#3f3d56"/>
    <path id="Path_204" data-name="Path 204" d="M288,777.184a4.059,4.059,0,0,1-1.8.548,5.763,5.763,0,0,0-1.844.421,12.168,12.168,0,0,1-1.425.815,2.968,2.968,0,0,1-1.48.023,2.193,2.193,0,0,1-1.522-.827,2.538,2.538,0,0,1-.213-1.545q.068-.895.133-1.792a.854.854,0,0,1,.111-.433c.422-.616,1.449.258,2,.256a3.865,3.865,0,0,0,2.434-1.05.74.74,0,0,1,.189-.143c.248-.111.5.095.717.274l.074.06a4.723,4.723,0,0,0,1.82.649,1.969,1.969,0,0,1,1.5,1.112.943.943,0,0,1,.03.119A1.57,1.57,0,0,1,288,777.184Z" transform="translate(-267.917 -647.632)" fill="#2f2e41"/>
    <path id="Path_205" data-name="Path 205" d="M288,777.384a4.06,4.06,0,0,1-1.8.549,5.757,5.757,0,0,0-1.844.421,12.176,12.176,0,0,1-1.425.815,2.968,2.968,0,0,1-1.48.023,2.443,2.443,0,0,1-1.522-1.028,2.539,2.539,0,0,1-.213-1.545q.068-.895.133-1.792a.854.854,0,0,1,.111-.433c.422-.616,1.449.258,2,.256a3.865,3.865,0,0,0,2.434-1.05.74.74,0,0,1,.189-.143c.248-.111.5.095.717.274a5.154,5.154,0,0,1-.612,1.264,2.631,2.631,0,0,1-1.918,1.2,6.336,6.336,0,0,0-1.166.052c-.376.1-.727.485-.594.852s.591.435.971.455a4.312,4.312,0,0,0,1.582-.111c.309-.1.591-.273.891-.4,1.277-.529,2.889-.233,3.944-1.127a2.327,2.327,0,0,1,.322-.247C289,776.249,288.493,777.05,288,777.384Z" transform="translate(-267.917 -647.632)" fill="#e8eaf2"/>
    <path id="Path_206" data-name="Path 206" d="M288,777.384a4.06,4.06,0,0,1-1.8.549,5.757,5.757,0,0,0-1.844.421,12.176,12.176,0,0,1-1.425.815,2.968,2.968,0,0,1-1.48.023,2.443,2.443,0,0,1-1.522-1.028,2.539,2.539,0,0,1-.213-1.545q.068-.895.133-1.792a.854.854,0,0,1,.111-.433c.422-.616,1.449.258,2,.256a3.865,3.865,0,0,0,2.434-1.05.74.74,0,0,1,.189-.143c.248-.111.5.095.717.274a5.154,5.154,0,0,1-.612,1.264,2.631,2.631,0,0,1-1.918,1.2,6.336,6.336,0,0,0-1.166.052c-.376.1-.727.485-.594.852s.591.435.971.455a4.312,4.312,0,0,0,1.582-.111c.309-.1.591-.273.891-.4,1.277-.529,2.889-.233,3.944-1.127a2.327,2.327,0,0,1,.322-.247C289,776.249,288.493,777.05,288,777.384Z" transform="translate(-267.917 -647.632)" opacity="0.05"/>
    <path id="Path_207" data-name="Path 207" d="M248.04,567.067a7.851,7.851,0,0,0,1.076,5.793,10.816,10.816,0,0,1,.875,1.4,6.373,6.373,0,0,1,.341,1.111l.969,4.012a10.894,10.894,0,0,1,.447,3.3c-.055.774-.25,1.645.227,2.258a1.662,1.662,0,0,1,.288.4,1,1,0,0,1,0,.521c-.49,2.913-.854,5.958.032,8.775.8,2.554.849,5.384,1.531,7.972a1.778,1.778,0,0,0,.424.884,1.39,1.39,0,0,0,.636.3,4.692,4.692,0,0,0,3.006-.476c.659-.305,1.369-.841,1.313-1.566a3.174,3.174,0,0,0-.365-.964,6.816,6.816,0,0,1-.362-1.993,40.27,40.27,0,0,0-1.1-4.983,11.9,11.9,0,0,1-.329-5.056,44.23,44.23,0,0,1,3.253-10.007,1.208,1.208,0,0,1,.3-.448,3.078,3.078,0,0,0,.422-.288,1.272,1.272,0,0,0,.193-.525,5.7,5.7,0,0,1,.875-1.382c.738-1.172.5-2.674.477-4.058a27.938,27.938,0,0,0-.053-4.033,3.785,3.785,0,0,0-2.262-3.1,4.868,4.868,0,0,0-1.984-.094A39.1,39.1,0,0,0,248.04,567.067Z" transform="translate(-241.807 -476.383)" fill="#2f2e41"/>
    <path id="Path_208" data-name="Path 208" d="M248.04,567.067a7.851,7.851,0,0,0,1.076,5.793,10.816,10.816,0,0,1,.875,1.4,6.373,6.373,0,0,1,.341,1.111l.969,4.012a10.894,10.894,0,0,1,.447,3.3c-.055.774-.25,1.645.227,2.258a1.662,1.662,0,0,1,.288.4,1,1,0,0,1,0,.521c-.49,2.913-.854,5.958.032,8.775.8,2.554.849,5.384,1.531,7.972a1.778,1.778,0,0,0,.424.884,1.39,1.39,0,0,0,.636.3,4.692,4.692,0,0,0,3.006-.476c.659-.305,1.369-.841,1.313-1.566a3.174,3.174,0,0,0-.365-.964,6.816,6.816,0,0,1-.362-1.993,40.27,40.27,0,0,0-1.1-4.983,11.9,11.9,0,0,1-.329-5.056,44.23,44.23,0,0,1,3.253-10.007,1.208,1.208,0,0,1,.3-.448,3.078,3.078,0,0,0,.422-.288,1.272,1.272,0,0,0,.193-.525,5.7,5.7,0,0,1,.875-1.382c.738-1.172.5-2.674.477-4.058a27.938,27.938,0,0,0-.053-4.033,3.785,3.785,0,0,0-2.262-3.1,4.868,4.868,0,0,0-1.984-.094A39.1,39.1,0,0,0,248.04,567.067Z" transform="translate(-241.807 -476.383)" opacity="0.1"/>
    <path id="Path_209" data-name="Path 209" d="M260.45,578.477a8.41,8.41,0,0,1-.177,1.556q-.93,5.214-1.982,10.407c-.062.3-.122.6-.2.9a7.263,7.263,0,0,1-1.342,2.641c-2.922,3.642-3.175,8.931-4.76,13.324-.107.3-.214.6-.328.889a22.2,22.2,0,0,1-.978,2.182.623.623,0,0,1-.2.261.6.6,0,0,1-.318.062,9.287,9.287,0,0,1-4.118-.937.852.852,0,0,1-.437-.363.879.879,0,0,1-.047-.418,5.875,5.875,0,0,1,.513-2.538,5.416,5.416,0,0,1,1.015-1.23,46.65,46.65,0,0,1,.994-8.14,11.086,11.086,0,0,1,1.482-3.9c.584-.852,1.422-1.692,1.319-2.719-.045-.451-.234-1.013.133-1.278.16-.117.4-.132.506-.3a.564.564,0,0,0,.071-.255,6.3,6.3,0,0,0-.13-2.108,11.12,11.12,0,0,1-.314-1.374,1.733,1.733,0,0,1,.346-1.327c.019-.938-.007-1.912.012-2.848a5.283,5.283,0,0,0-.132-1.591c-.071-.245-.18-.48-.234-.731-.2-.9.293-1.98-.289-2.695a3.959,3.959,0,0,0-.935-.658,3.432,3.432,0,0,1-1.284-1.846,10.187,10.187,0,0,1-.363-2.26,2.326,2.326,0,0,1-.005-.488.9.9,0,0,1,.066-.244,1.491,1.491,0,0,1,1.1-.669,35.655,35.655,0,0,1,8.409-.983c1.048-.713,1.637-.458,2.082.3a7.8,7.8,0,0,1,.592,1.447c.2.613.215,4.044.413,4.66C261.182,576,260.44,577.636,260.45,578.477Z" transform="translate(-239.894 -479.349)" fill="#2f2e41"/>
    <path id="Path_210" data-name="Path 210" d="M222.562,445.47a8.437,8.437,0,0,0,.21,1.615,6.091,6.091,0,0,1-.213,1.409,10.294,10.294,0,0,0,.973,5.42,2.793,2.793,0,0,1,.231.891,9.074,9.074,0,0,1-.4,1.648c-.188,1.178.681,2.286.7,3.479a6.984,6.984,0,0,0-.027,1.64,5.8,5.8,0,0,0,.47.991c.279.587.353,1.252.619,1.845a6.234,6.234,0,0,0,2.495,2.412,2.553,2.553,0,0,0,1.47-.91,2.255,2.255,0,0,0,.257-.8,20.792,20.792,0,0,0,.2-3.7,22.837,22.837,0,0,0-.169-3.188c-.2-1.345-.635-2.642-.948-3.966a38.323,38.323,0,0,0-1.212-4.994,16.989,16.989,0,0,0-2.269-3.879c-.338-.462-.605-1.121-1.261-1.015A1.376,1.376,0,0,0,222.562,445.47Z" transform="translate(-220.949 -377.564)" fill="#3f3d56"/>
    <path id="Path_211" data-name="Path 211" d="M222.562,445.47a8.437,8.437,0,0,0,.21,1.615,6.091,6.091,0,0,1-.213,1.409,10.294,10.294,0,0,0,.973,5.42,2.793,2.793,0,0,1,.231.891,9.074,9.074,0,0,1-.4,1.648c-.188,1.178.681,2.286.7,3.479a6.984,6.984,0,0,0-.027,1.64,5.8,5.8,0,0,0,.47.991c.279.587.353,1.252.619,1.845a6.234,6.234,0,0,0,2.495,2.412,2.553,2.553,0,0,0,1.47-.91,2.255,2.255,0,0,0,.257-.8,20.792,20.792,0,0,0,.2-3.7,22.837,22.837,0,0,0-.169-3.188c-.2-1.345-.635-2.642-.948-3.966a38.323,38.323,0,0,0-1.212-4.994,16.989,16.989,0,0,0-2.269-3.879c-.338-.462-.605-1.121-1.261-1.015A1.376,1.376,0,0,0,222.562,445.47Z" transform="translate(-220.949 -377.564)" fill="#fff"/>
    <circle id="Ellipse_29" data-name="Ellipse 29" cx="5.092" cy="5.092" r="5.092" transform="translate(8.501 48.169)" fill="#efbd7a"/>
    <path id="Path_212" data-name="Path 212" d="M241.079,408.7c-.222.257-.52.54-.849.457a1.158,1.158,0,0,1-.33-.177,4.981,4.981,0,0,0-2-.571,29.482,29.482,0,0,1-4.115-.925,4.2,4.2,0,0,0-1.217-.247,2.962,2.962,0,0,0-2.169,1.251c-.541.673-.924,1.46-1.455,2.14-.378.485-.828.912-1.182,1.416a6.2,6.2,0,0,0-.853,4.464,18.407,18.407,0,0,0,1.451,4.411,15.331,15.331,0,0,0,1.185,2.389,5.689,5.689,0,0,0,.458,3.547,3.5,3.5,0,0,1,.462,1.054,2.639,2.639,0,0,1-.032.773l-.259,1.844c-.079.561-.158,1.123-.26,1.681a4.821,4.821,0,0,0,.032,3.052c.566,1.106-.028,2.524.12,3.757a18.9,18.9,0,0,1,4.962-1.179,17.819,17.819,0,0,0,3.265-.428c.659-.192,1.285-.5,1.954-.648a9.005,9.005,0,0,1,1.648-.168,19.49,19.49,0,0,1,3.657.082c.1.015.217.022.275-.057a.257.257,0,0,0,.037-.144,2.435,2.435,0,0,0-.312-1.3,1.775,1.775,0,0,1-.362-.85,1.29,1.29,0,0,1,.106-.422l.535-1.427c.452-1.2.237-2.6.471-3.87a22.722,22.722,0,0,0,.352-2.994,3.743,3.743,0,0,0-.5-2.475,2.844,2.844,0,0,1-.391-.544,1.652,1.652,0,0,1-.093-.651q-.017-2.577.141-5.152c-.452-.811-.923-1.641-1.375-2.453a10.478,10.478,0,0,1-1.271-2.968c-.141-.7-.136-1.424-.236-2.132a.931.931,0,0,0-.18-.5.906.906,0,0,0-.725-.215A3.21,3.21,0,0,0,241.079,408.7Z" transform="translate(-224.523 -347.106)" fill="#fff"/>
    <path id="Path_213" data-name="Path 213" d="M309.8,404.924a3.589,3.589,0,0,0,1.073,1.012,3.443,3.443,0,0,0,1.672.256,39.94,39.94,0,0,0,6.985-.767,4.36,4.36,0,0,0,.769-.206,4.051,4.051,0,0,0,.778-.485,9.949,9.949,0,0,0,2.1-1.833,6.164,6.164,0,0,0,1.246-3.056,5,5,0,0,0,1.113-1.915,2.924,2.924,0,0,0,.254-.93c.015-.329-.2-.675-.143-1a2.639,2.639,0,0,1,.808-1.453.53.53,0,0,0,.192-.255.411.411,0,0,0-.046-.249,1.924,1.924,0,0,0-1.327-1,5.693,5.693,0,0,0-1.709-.068,3.994,3.994,0,0,0-.56.149l-.4,1.049a1.356,1.356,0,0,1-.26.478,2.441,2.441,0,0,1-.283.221,1.617,1.617,0,0,0-.56,1.413,1.519,1.519,0,0,0-.9,1.875,1.79,1.79,0,0,0-1.313,1.156.864.864,0,0,1-.172.36.7.7,0,0,1-.458.141c-.45.028-.843.382-1.251.19a2.544,2.544,0,0,0-1.486-.208,1.12,1.12,0,0,1-.317.028.838.838,0,0,1-.26-.091,2.08,2.08,0,0,0-.59-.232.552.552,0,0,0-.56.216c-.143-.157-.228-.357-.358-.524a.574.574,0,0,0-.543-.259c.136-.121,0-.361-.179-.405a2.3,2.3,0,0,0-.542.02c-.471,0-.832-.43-1.29-.542-.42-.1-.981.02-1.2-.356-.076-.133-.091-.314-.221-.4a.427.427,0,0,0-.284-.033,2.777,2.777,0,0,0-.859.261,12.054,12.054,0,0,0,.126,5.264,4.643,4.643,0,0,0,.946,2.17Z" transform="translate(-291.542 -335.373)" fill="#fff"/>
    <path id="Path_214" data-name="Path 214" d="M234.713,403.591a5.152,5.152,0,0,0-1.822-.6,3.84,3.84,0,0,0-1.16-.083c-.358.045-.7.183-1.063.2a4.734,4.734,0,0,1-1.481-.311,1.739,1.739,0,0,0-1.466.111.633.633,0,0,1-.319.169.558.558,0,0,1-.33-.162,1.879,1.879,0,0,0-2.341.123c-.934.875-.828,2.586-1.922,3.25-.3.183-.687.28-.863.586a2.164,2.164,0,0,1-.149.282.763.763,0,0,1-.263.187,5.114,5.114,0,0,0-.9.518,1.29,1.29,0,0,0-.519.87,1.64,1.64,0,0,0,.159.732,6.866,6.866,0,0,0,6.673,4.267,1.056,1.056,0,0,0,.7-.218,1.32,1.32,0,0,0,.245-.4c.514-1.079,1.48-1.875,2.094-2.9.366-.611.6-1.295.981-1.9a9.13,9.13,0,0,1,2.313-2.241,2.668,2.668,0,0,1,1.632-.73c.542.023.937.052.738-.613A2.131,2.131,0,0,0,234.713,403.591Z" transform="translate(-219.017 -343.271)" fill="#3f3d56"/>
    <path id="Path_215" data-name="Path 215" d="M234.713,403.591a5.152,5.152,0,0,0-1.822-.6,3.84,3.84,0,0,0-1.16-.083c-.358.045-.7.183-1.063.2a4.734,4.734,0,0,1-1.481-.311,1.739,1.739,0,0,0-1.466.111.633.633,0,0,1-.319.169.558.558,0,0,1-.33-.162,1.879,1.879,0,0,0-2.341.123c-.934.875-.828,2.586-1.922,3.25-.3.183-.687.28-.863.586a2.164,2.164,0,0,1-.149.282.763.763,0,0,1-.263.187,5.114,5.114,0,0,0-.9.518,1.29,1.29,0,0,0-.519.87,1.64,1.64,0,0,0,.159.732,6.866,6.866,0,0,0,6.673,4.267,1.056,1.056,0,0,0,.7-.218,1.32,1.32,0,0,0,.245-.4c.514-1.079,1.48-1.875,2.094-2.9.366-.611.6-1.295.981-1.9a9.13,9.13,0,0,1,2.313-2.241,2.668,2.668,0,0,1,1.632-.73c.542.023.937.052.738-.613A2.131,2.131,0,0,0,234.713,403.591Z" transform="translate(-219.017 -343.271)" fill="#fff"/>
    <path id="Path_216" data-name="Path 216" d="M254.358,801.293a2.842,2.842,0,0,1-1.369.6,24.663,24.663,0,0,1-3.406.421l-1.112.085c-1.086.082-2.174.166-3.264.17a22.5,22.5,0,0,1-4.014-.347.341.341,0,0,1-.366-.407,19.446,19.446,0,0,1,.494-4.029c.126-.543,1.1.675,1.144.725a1.113,1.113,0,0,0,.884.47,5.875,5.875,0,0,0,3.265-1.226,4.175,4.175,0,0,1,.6-.374,1.779,1.779,0,0,1,.49-.14,2.957,2.957,0,0,1,1.666.337c.669.332,1.256.809,1.918,1.151a5.392,5.392,0,0,0,1.72.544c.606.084,1.33.123,1.641.649a0,0,0,0,1,0,0A1.153,1.153,0,0,1,254.358,801.293Z" transform="translate(-236.011 -667.17)" fill="#2f2e41"/>
    <path id="Path_217" data-name="Path 217" d="M253.471,801.551a2.842,2.842,0,0,1-1.369.6,24.664,24.664,0,0,1-3.406.421l-1.112.085c-1.086.082-2.174.166-3.264.17a22.5,22.5,0,0,1-4.014-.347.443.443,0,0,1-.318-.154,1.779,1.779,0,0,1-.249-.454,19.751,19.751,0,0,1,.694-4.029c.126-.543,1.1.675,1.144.725a1.113,1.113,0,0,0,.884.47,5.874,5.874,0,0,0,3.265-1.226,4.173,4.173,0,0,1,.6-.374,1.782,1.782,0,0,1,.49-.14,4.012,4.012,0,0,1-1.9,2.076c-1.207.6-2.641.3-3.988.37a.555.555,0,0,0-.283.069c-.162.107-.171.336-.166.529.011.321.052.7.33.861a.954.954,0,0,0,.447.093,63.224,63.224,0,0,0,9.943-.348,5.463,5.463,0,0,0,1.62-.361,4.191,4.191,0,0,0,.939-.6C254.192,800.319,253.838,801.208,253.471,801.551Z" transform="translate(-235.124 -667.227)" fill="#e8eaf2"/>
    <path id="Path_218" data-name="Path 218" d="M265.126,344.043c-.019.527.34,1.548-.645,1.263-.587-.17-.753-.865-1.5-.71s-.916,1.072-1.168,1.673a3.2,3.2,0,0,1-2.32,1.875,1.4,1.4,0,0,1-.639,0,1.718,1.718,0,0,1-.95-1.092,8.567,8.567,0,0,1-.421-1.2,5.058,5.058,0,0,1-.152-.879h0a3.915,3.915,0,0,1,0-.607,4.934,4.934,0,0,1,1.643-3.114,14.693,14.693,0,0,1,2.978-2.01,4.349,4.349,0,0,1,1.1-.49,3.7,3.7,0,0,1,1.16-.048,4.05,4.05,0,0,1,1.476.347,2.078,2.078,0,0,1,.52.365,1.563,1.563,0,0,1,.45.751,2.752,2.752,0,0,1-.7,2.082A3.719,3.719,0,0,0,265.126,344.043Z" transform="translate(-249.552 -290.837)" fill="#2f2e41"/>
    <path id="Path_219" data-name="Path 219" d="M256.285,336.037a4.5,4.5,0,0,1-.3.431,5.094,5.094,0,0,1-.7.721,5.8,5.8,0,0,1-.47.369,7.4,7.4,0,0,1-.95.568,17.5,17.5,0,0,1-3.042,1.09l-2.034.591c-.709.536-3.084,2.3-3.483,2.076-.47-.259,2.107-2.084,2.107-2.084l.119.09a1.9,1.9,0,0,1-.66-1.263,6.354,6.354,0,0,1-.021-2.578,3.052,3.052,0,0,1,1.478-2.035,3.445,3.445,0,0,0,1-.565.71.71,0,0,0,.1-.132.43.43,0,0,0,.038-.07.947.947,0,0,1,.108-.21c.141-.163.4-.114.612-.088l.069.007a1.091,1.091,0,0,0,.115.005c.764.016,1.5-.409,2.278-.409a5.806,5.806,0,0,1,2.315.824c.151.069.293.13.428.193a1.85,1.85,0,0,1,1.167,1.231A1.559,1.559,0,0,1,256.285,336.037Z" transform="translate(-239.647 -285.81)" fill="#fff"/>
    <path id="Path_220" data-name="Path 220" d="M257.6,372.811a.941.941,0,0,0,.352.131,1.134,1.134,0,0,0,.938-.141Z" transform="translate(-249.786 -318.842)" opacity="0.1"/>
  </g>
</svg>
