<svg xmlns="http://www.w3.org/2000/svg" xmlns:xlink="http://www.w3.org/1999/xlink" width="101.548" height="114.717" viewBox="0 0 101.548 114.717">
  <defs>
    <linearGradient id="linear-gradient" x1="0.5" y1="1" x2="0.5" gradientUnits="objectBoundingBox">
      <stop offset="0" stop-color="gray" stop-opacity="0.251"/>
      <stop offset="0.54" stop-color="gray" stop-opacity="0.122"/>
      <stop offset="1" stop-color="gray" stop-opacity="0.102"/>
    </linearGradient>
    <linearGradient id="linear-gradient-2" x1="0.5" y1="1" x2="0.5" y2="0" xlink:href="#linear-gradient"/>
    <linearGradient id="linear-gradient-3" x1="-0.001" y1="0.5" x2="1" y2="0.5" xlink:href="#linear-gradient"/>
  </defs>
  <g id="undraw_post_online_dkuk" transform="translate(-0.093 -0.05)">
    <g id="Group_14" data-name="Group 14" transform="translate(72.013 59.648)" opacity="0.2">
      <path id="Path_225" data-name="Path 225" d="M745.128,748a3.466,3.466,0,0,1-.315.485q-1.57-1.1-3.193-2.167l.07-.139A3.067,3.067,0,0,1,742.776,745a1.814,1.814,0,0,1,1.825-.149,1.835,1.835,0,0,1,.9,1.594A3.077,3.077,0,0,1,745.128,748Z" transform="translate(-741.62 -702.901)" fill="#3f3d56"/>
      <ellipse id="Ellipse_30" data-name="Ellipse 30" cx="2.547" cy="1.945" rx="2.547" ry="1.945" transform="translate(0.336 42.797) rotate(-62.09)" fill="#3f3d56"/>
      <ellipse id="Ellipse_31" data-name="Ellipse 31" cx="2.547" cy="1.945" rx="2.547" ry="1.945" transform="translate(1.793 40.047) rotate(-62.09)" fill="#3f3d56"/>
      <ellipse id="Ellipse_32" data-name="Ellipse 32" cx="2.547" cy="1.945" rx="2.547" ry="1.945" transform="translate(3.25 37.297) rotate(-62.09)" fill="#3f3d56"/>
      <ellipse id="Ellipse_33" data-name="Ellipse 33" cx="2.547" cy="1.945" rx="2.547" ry="1.945" transform="translate(4.706 34.548) rotate(-62.09)" fill="#3f3d56"/>
      <path id="Path_226" data-name="Path 226" d="M754.049,476a9.225,9.225,0,0,1-.149-1.281l4.917,1.655-4.9-2.551a9.327,9.327,0,0,1,3.3-6.606l4.751,6.87-3.689-7.641a9.316,9.316,0,1,1,8.717,16.413,9.325,9.325,0,0,1,.149,2l-7.468-.06,7.36,1.213a9.316,9.316,0,0,1-5.42,7.02,9.316,9.316,0,1,1-12.942-6.854A9.318,9.318,0,0,1,754.061,476Z" transform="translate(-742.903 -465.029)" fill="#fff"/>
      <path id="Path_227" data-name="Path 227" d="M765.988,606.1a9.281,9.281,0,0,1-4.457,4.157A9.316,9.316,0,1,1,748.59,603.4C748.228,601.415,766.478,605.173,765.988,606.1Z" transform="translate(-742.835 -582.248)" opacity="0.1"/>
    </g>
    <g id="Group_15" data-name="Group 15" transform="translate(0.093 0.232)" opacity="0.2">
      <path id="Path_228" data-name="Path 228" d="M475.952,654.966a6.468,6.468,0,0,0,.357,1.053q3.452-1.322,6.983-2.539c-.021-.1-.042-.194-.066-.3a5.9,5.9,0,0,0-1.468-2.721,3.254,3.254,0,0,0-5.756,1.4A5.907,5.907,0,0,0,475.952,654.966Z" transform="translate(-443.555 -562.296)" fill="#3f3d56"/>
      <ellipse id="Ellipse_34" data-name="Ellipse 34" cx="3.744" cy="4.9" rx="3.744" ry="4.9" transform="translate(29.819 82.08) rotate(-13.72)" fill="#3f3d56"/>
      <ellipse id="Ellipse_35" data-name="Ellipse 35" cx="3.744" cy="4.9" rx="3.744" ry="4.9" transform="translate(28.397 76.261) rotate(-13.72)" fill="#3f3d56"/>
      <ellipse id="Ellipse_36" data-name="Ellipse 36" cx="3.744" cy="4.9" rx="3.744" ry="4.9" transform="translate(26.976 70.441) rotate(-13.72)" fill="#3f3d56"/>
      <ellipse id="Ellipse_37" data-name="Ellipse 37" cx="3.744" cy="4.9" rx="3.744" ry="4.9" transform="translate(25.556 64.623) rotate(-13.72)" fill="#3f3d56"/>
      <path id="Path_229" data-name="Path 229" d="M294.339,92.579a17.72,17.72,0,0,0,.868-2.324l-9.94.763,10.36-2.451a17.971,17.971,0,0,0-3.036-13.89L280.474,85.261,290.968,72.74A17.933,17.933,0,1,0,266.95,99.259a17.821,17.821,0,0,0-1.211,3.662l13.978,3.417-14.309-1.213a17.944,17.944,0,0,0,6.8,15.683,17.933,17.933,0,1,0,27.388-6.684A17.935,17.935,0,0,0,294.339,92.579Z" transform="translate(-260.093 -67.221)" fill="#fff"/>
      <path id="Path_230" data-name="Path 230" d="M298.633,355.132a17.85,17.85,0,0,0,6.357,9.858,17.933,17.933,0,1,0,27.388-6.684C333.989,354.775,298.155,353.177,298.633,355.132Z" transform="translate(-292.873 -311.412)" opacity="0.1"/>
    </g>
    <path id="Path_231" data-name="Path 231" d="M499.674,91.131h-.333V73.169A7.226,7.226,0,0,0,492.058,66H451.264a7.228,7.228,0,0,0-7.283,7.169v7.446h-.1a.426.426,0,0,0-.429.421v3.585a.426.426,0,0,0,.429.421h.1V88.7h-.131a.424.424,0,0,0-.427.421v6.854a.426.426,0,0,0,.427.423h.131v2.688h-.114a.424.424,0,0,0-.429.421v6.921a.424.424,0,0,0,.429.421h.114V169.64a7.226,7.226,0,0,0,7.283,7.169h40.785a7.228,7.228,0,0,0,7.283-7.169V104.564h.335a.426.426,0,0,0,.429-.421V91.552a.426.426,0,0,0-.429-.421Z" transform="translate(-415.954 -65.95)" fill="url(#linear-gradient)"/>
    <g id="Group_16" data-name="Group 16" transform="translate(28.283 0.797)" opacity="0.9">
      <rect id="Rectangle_434" data-name="Rectangle 434" width="1.609" height="13.266" rx="0.804" transform="translate(53.523 24.825)" fill="#e5e7eb"/>
      <rect id="Rectangle_435" data-name="Rectangle 435" width="0.904" height="4.367" rx="0.452" transform="translate(0.033 14.433)" fill="#e5e7eb"/>
      <rect id="Rectangle_436" data-name="Rectangle 436" width="1.019" height="7.601" rx="0.509" transform="translate(0 22.428)" fill="#e5e7eb"/>
      <rect id="Rectangle_437" data-name="Rectangle 437" width="0.969" height="7.667" rx="0.485" transform="translate(0.016 32.689)" fill="#e5e7eb"/>
      <rect id="Rectangle_438" data-name="Rectangle 438" width="53.847" height="109.437" rx="8" transform="translate(0.544)" fill="#fff"/>
      <rect id="Rectangle_439" data-name="Rectangle 439" width="7.52" height="1.526" rx="0.763" transform="translate(22.274 3.268)" fill="#e5e7eb"/>
      <circle id="Ellipse_38" data-name="Ellipse 38" cx="0.866" cy="0.866" r="0.866" transform="translate(30.929 3.165)" fill="#e5e7eb"/>
    </g>
    <path id="Path_232" data-name="Path 232" d="M517.66,90.09H511.5v.747a3.522,3.522,0,0,1-3.522,3.52H488.321a3.522,3.522,0,0,1-3.522-3.52V90.09h-5.783a4.276,4.276,0,0,0-4.276,4.276v95.183a4.276,4.276,0,0,0,4.276,4.276H517.66a4.276,4.276,0,0,0,4.276-4.276V94.366A4.276,4.276,0,0,0,517.66,90.09Z" transform="translate(-442.587 -86.442)" fill="#ececf3"/>
    <ellipse id="Ellipse_39" data-name="Ellipse 39" cx="8.542" cy="1.444" rx="8.542" ry="1.444" transform="translate(4.57 111.147)" fill="#fff"/>
    <path id="Path_233" data-name="Path 233" d="M325.884,781.228A2.5,2.5,0,0,0,326.7,780a1.1,1.1,0,0,0-.569-1.252,1.6,1.6,0,0,0-1.5.527,2.012,2.012,0,0,1-1.464.706,2.226,2.226,0,0,0,.689-2.091.862.862,0,0,0-.191-.423c-.29-.311-.815-.178-1.164.067a4.338,4.338,0,0,0-1.419,3.629,6.836,6.836,0,0,1-.021-1.494,1.54,1.54,0,0,0-.56-1.323,1.7,1.7,0,0,0-.857-.2,1.774,1.774,0,0,0-1.388.394,1.38,1.38,0,0,0,.054,1.706,5.363,5.363,0,0,0,1.438,1.152,3.185,3.185,0,0,1,1.026.98.885.885,0,0,1,.076.175h3.111A8.725,8.725,0,0,0,325.884,781.228Z" transform="translate(-309.24 -670.999)" fill="#fff"/>
    <g id="Group_17" data-name="Group 17" transform="translate(87.81 101.044)" opacity="0.4">
      <ellipse id="Ellipse_40" data-name="Ellipse 40" cx="4.875" cy="0.824" rx="4.875" ry="0.824" transform="translate(0 2.777)" fill="#fff"/>
      <path id="Path_234" data-name="Path 234" d="M867.816,744.438a1.424,1.424,0,0,0,.466-.7.626.626,0,0,0-.326-.715.918.918,0,0,0-.859.3,1.156,1.156,0,0,1-.835.4,1.268,1.268,0,0,0,.393-1.195.488.488,0,0,0-.109-.241c-.166-.178-.466-.1-.663.037a2.486,2.486,0,0,0-.811,2.072,3.974,3.974,0,0,1-.01-.853.884.884,0,0,0-.321-.756.974.974,0,0,0-.488-.114,1.017,1.017,0,0,0-.793.224.789.789,0,0,0,.031.974,3.048,3.048,0,0,0,.822.657,1.835,1.835,0,0,1,.585.559.5.5,0,0,1,.043.1h1.777A4.929,4.929,0,0,0,867.816,744.438Z" transform="translate(-860.926 -742.185)" fill="#fff"/>
    </g>
    <g id="Group_18" data-name="Group 18" transform="translate(13.142 91.779)" opacity="0.4">
      <ellipse id="Ellipse_41" data-name="Ellipse 41" cx="4.875" cy="0.824" rx="4.875" ry="0.824" transform="translate(0 2.778)" fill="#fff"/>
      <path id="Path_235" data-name="Path 235" d="M367.906,682.407a1.408,1.408,0,0,0,.465-.7.623.623,0,0,0-.326-.714.915.915,0,0,0-.857.3,1.156,1.156,0,0,1-.835.4,1.275,1.275,0,0,0,.393-1.195.5.5,0,0,0-.109-.242c-.166-.176-.466-.1-.665.039a2.478,2.478,0,0,0-.81,2.07,3.874,3.874,0,0,1-.012-.853.856.856,0,0,0-.32-.747.965.965,0,0,0-.49-.115,1.009,1.009,0,0,0-.792.226.789.789,0,0,0,.031.974,3.089,3.089,0,0,0,.82.657,1.806,1.806,0,0,1,.585.559.615.615,0,0,1,.045.1h1.776A4.973,4.973,0,0,0,367.906,682.407Z" transform="translate(-361.014 -680.153)" fill="#fff"/>
    </g>
    <rect id="Rectangle_440" data-name="Rectangle 440" width="7.631" height="7.631" transform="translate(35.773 11.551)" fill="#d6d8e0"/>
    <rect id="Rectangle_441" data-name="Rectangle 441" width="15.987" height="1.453" transform="translate(49.035 12.096)" fill="#d6d8e0"/>
    <rect id="Rectangle_442" data-name="Rectangle 442" width="26.342" height="1.453" transform="translate(49.035 14.639)" fill="#d6d8e0"/>
    <rect id="Rectangle_443" data-name="Rectangle 443" width="26.342" height="1.453" transform="translate(49.035 17.183)" fill="#d6d8e0"/>
    <rect id="Rectangle_444" data-name="Rectangle 444" width="7.631" height="7.631" transform="translate(35.831 25.54)" fill="#d6d8e0"/>
    <rect id="Rectangle_445" data-name="Rectangle 445" width="15.987" height="1.453" transform="translate(49.093 26.085)" fill="#d6d8e0"/>
    <rect id="Rectangle_446" data-name="Rectangle 446" width="26.342" height="1.453" transform="translate(49.093 28.628)" fill="#d6d8e0"/>
    <rect id="Rectangle_447" data-name="Rectangle 447" width="26.342" height="1.453" transform="translate(49.093 31.17)" fill="#d6d8e0"/>
    <rect id="Rectangle_448" data-name="Rectangle 448" width="7.631" height="7.631" transform="translate(35.889 39.528)" fill="#d6d8e0"/>
    <rect id="Rectangle_449" data-name="Rectangle 449" width="15.987" height="1.453" transform="translate(49.153 40.072)" fill="#d6d8e0"/>
    <rect id="Rectangle_450" data-name="Rectangle 450" width="26.342" height="1.453" transform="translate(49.153 42.616)" fill="#d6d8e0"/>
    <rect id="Rectangle_451" data-name="Rectangle 451" width="26.342" height="1.453" transform="translate(49.153 45.159)" fill="#d6d8e0"/>
    <rect id="Rectangle_452" data-name="Rectangle 452" width="7.631" height="7.631" transform="translate(35.948 53.516)" fill="#d6d8e0"/>
    <rect id="Rectangle_453" data-name="Rectangle 453" width="15.987" height="1.453" transform="translate(49.211 54.061)" fill="#d6d8e0"/>
    <rect id="Rectangle_454" data-name="Rectangle 454" width="26.342" height="1.453" transform="translate(49.211 56.605)" fill="#d6d8e0"/>
    <rect id="Rectangle_455" data-name="Rectangle 455" width="26.342" height="1.453" transform="translate(49.211 59.148)" fill="#d6d8e0"/>
    <rect id="Rectangle_456" data-name="Rectangle 456" width="7.631" height="7.631" transform="translate(36.007 67.505)" fill="#d6d8e0"/>
    <rect id="Rectangle_457" data-name="Rectangle 457" width="15.987" height="1.453" transform="translate(49.269 68.05)" fill="#d6d8e0"/>
    <rect id="Rectangle_458" data-name="Rectangle 458" width="26.342" height="1.453" transform="translate(49.269 70.594)" fill="#d6d8e0"/>
    <rect id="Rectangle_459" data-name="Rectangle 459" width="26.342" height="1.453" transform="translate(49.269 73.137)" fill="#d6d8e0"/>
    <rect id="Rectangle_460" data-name="Rectangle 460" width="7.631" height="7.631" transform="translate(36.066 81.494)" fill="#d6d8e0"/>
    <rect id="Rectangle_461" data-name="Rectangle 461" width="15.987" height="1.453" transform="translate(49.327 82.039)" fill="#d6d8e0"/>
    <rect id="Rectangle_462" data-name="Rectangle 462" width="26.342" height="1.453" transform="translate(49.327 84.583)" fill="#d6d8e0"/>
    <rect id="Rectangle_463" data-name="Rectangle 463" width="26.342" height="1.453" transform="translate(49.327 87.126)" fill="#d6d8e0"/>
    <rect id="Rectangle_464" data-name="Rectangle 464" width="7.631" height="7.631" transform="translate(36.124 95.483)" fill="#d6d8e0"/>
    <rect id="Rectangle_465" data-name="Rectangle 465" width="15.987" height="1.453" transform="translate(49.386 96.028)" fill="#d6d8e0"/>
    <rect id="Rectangle_466" data-name="Rectangle 466" width="26.342" height="1.453" transform="translate(49.386 98.571)" fill="#d6d8e0"/>
    <rect id="Rectangle_467" data-name="Rectangle 467" width="26.342" height="1.453" transform="translate(49.386 101.115)" fill="#d6d8e0"/>
    <rect id="Rectangle_468" data-name="Rectangle 468" width="65.038" height="16.168" transform="translate(23.231 34.559)" fill="url(#linear-gradient-2)"/>
    <rect id="Rectangle_469" data-name="Rectangle 469" width="64.493" height="15.442" transform="translate(23.594 34.924)" fill="#fff"/>
    <rect id="Rectangle_470" data-name="Rectangle 470" width="7.631" height="7.631" transform="translate(36.039 38.829)" fill="#fff"/>
    <g id="Group_19" data-name="Group 19" transform="translate(49.302 39.375)" opacity="0.5">
      <rect id="Rectangle_471" data-name="Rectangle 471" width="15.987" height="1.453" fill="#fff"/>
      <rect id="Rectangle_472" data-name="Rectangle 472" width="26.342" height="1.453" transform="translate(0 2.544)" fill="#fff"/>
      <rect id="Rectangle_473" data-name="Rectangle 473" width="26.342" height="1.453" transform="translate(0 5.087)" fill="#fff"/>
    </g>
    <path id="Path_236" data-name="Path 236" d="M439.933,385.688a1.329,1.329,0,0,0-1.57-.239,2.306,2.306,0,0,0-.78,1.056,8.176,8.176,0,0,0-.814,1.8c-.345,1.779-1.761,3.16-2.328,4.88a9.7,9.7,0,0,1-.62,1.833,5.833,5.833,0,0,1-.508.7,19.689,19.689,0,0,0-1.942,2.962,2.384,2.384,0,0,0-.884.55,3.052,3.052,0,0,1-1.195.566,1.128,1.128,0,0,0-.49.179c-.206.172-.235.481-.4.689a1.072,1.072,0,0,1-.448.3c0-.052-.007-.1-.009-.158-.007-.276-.012-.554-.012-.832a3.127,3.127,0,0,0-.009-4.06,6.121,6.121,0,0,1,.172-1.283.57.57,0,0,0-.121-.588c-.082-.064-.188-.088-.276-.149a1.2,1.2,0,0,1-.3-.379,1.613,1.613,0,0,0-2.028-.518c-.539.284-.866.851-1.344,1.237-.245.2-.527.345-.772.544a3.207,3.207,0,0,0-1,1.625,9.306,9.306,0,0,0-.272,1.918,1.732,1.732,0,0,0,.022.582,1.538,1.538,0,0,0,.22.448,5.021,5.021,0,0,0,1.857,1.77.731.731,0,0,1,0,.115.827.827,0,0,1-.033.178l-.087-.024a3.431,3.431,0,0,1-.951-.223c-.49-.275-.638-.945-1.107-1.253a.846.846,0,0,0-.125-.067,8.382,8.382,0,0,0-.481-2.49,3.1,3.1,0,0,1-.285-1.18,2.9,2.9,0,0,1,.36-1.068,27.146,27.146,0,0,0,1.344-3.679q.372-1.175.747-2.352a3.706,3.706,0,0,0,.656-.624,3.329,3.329,0,0,0,.76-1.633,2.312,2.312,0,0,0-.42-1.727,1,1,0,0,0-.7-.43.913.913,0,0,0-.656.3,2.916,2.916,0,0,0-.562.965,4.307,4.307,0,0,0-.469,1.806c.019.52.214,1.1-.09,1.523a36.442,36.442,0,0,0-2.53,4.491,8.029,8.029,0,0,0-.511,1.126,6.273,6.273,0,0,0-.267,1.942,26.036,26.036,0,0,0,.329,3.68,4.729,4.729,0,0,0,.435,1.613,6.764,6.764,0,0,0-.267,1.816,1.035,1.035,0,0,0,.066.417,1.72,1.72,0,0,0,.33.415,1.86,1.86,0,0,1,.448,1.47,4.167,4.167,0,0,0,.133,1.473c.3,1.326.6,2.651.836,3.988a2.552,2.552,0,0,1,.057.759,4.475,4.475,0,0,0-.2,1.068,4.043,4.043,0,0,1,.1.511,1.262,1.262,0,0,1-.09.382,19.044,19.044,0,0,0-1.246,4.309l.239-.057c-.24,1.361-.8,2.662-1.1,4.018a13.443,13.443,0,0,0-.278,3.005,11.142,11.142,0,0,1-.024,1.359c-.046.4-.149.795-.206,1.195a10.823,10.823,0,0,0-.072,1.618,16.517,16.517,0,0,0,.149,2.539,18.539,18.539,0,0,1-.281,4.306,25.877,25.877,0,0,1-.344,3.02c-.082.421-.185.839-.242,1.265-.167,1.264.076,2.566-.187,3.813-.124.584-.345,1.24-.019,1.739.1.157.251.279.363.43a.547.547,0,0,1,.1.527c-.064.137-.214.227-.251.373-.06.23.181.418.4.517l.061.024a.554.554,0,0,0,.117.448.95.95,0,0,0,.459.239l2.82.854a3.763,3.763,0,0,0,1.942.224.488.488,0,0,0,.112.242.95.95,0,0,0,.458.239l2.8.848a3.268,3.268,0,0,0,2.2.137,1.25,1.25,0,0,0,.5-.381,1.332,1.332,0,0,0,.179-1.116.91.91,0,0,0-.272-.5,1.2,1.2,0,0,0-.651-.214,1.316,1.316,0,0,1-.571-.149.41.41,0,0,1-.13-.136q.242-.239.469-.5c-.122-.042-.166-.218-.178-.347-.178-1.9.539-3.762.811-5.653a12.1,12.1,0,0,0,.072-2.865c-.033-.36-.082-.718-.1-1.08-.07-1.882.829-3.692.8-5.576a10.092,10.092,0,0,1,.674-2.6,9.425,9.425,0,0,0,.208-2.33l.036-6.163a7.71,7.71,0,0,0-.266-2.473,3.137,3.137,0,0,1-.108-1.353,4.711,4.711,0,0,1,2.293-.747,7.653,7.653,0,0,0-.243-3.072,13.212,13.212,0,0,1-.448-7.115c.184-.85-.069-1.753.136-2.6a1.573,1.573,0,0,1,.223-.559.6.6,0,0,1,.512-.27c0-.518-.01-1.046-.045-1.571a3.733,3.733,0,0,0,.832-.957,14.762,14.762,0,0,0,1.013-2.4c.548-1.434,1.3-2.78,1.925-4.182s.69-2.936,1.195-4.388a3.3,3.3,0,0,1,1.606-1.849,2.562,2.562,0,0,0,.833-.5,1.345,1.345,0,0,0,.29-.712A1.884,1.884,0,0,0,439.933,385.688Zm-17.475,61.7c.061-.067.121-.134.178-.208-.188-.03-.418-.167-.423-.358a1.982,1.982,0,0,1,.123-.56,2.24,2.24,0,0,0,.042-.995c-.042-.232-.119-.448-.167-.684a6.389,6.389,0,0,1-.09-.774,12.8,12.8,0,0,0-.544-2.742,6.517,6.517,0,0,1,.2-2.641,5.207,5.207,0,0,1,.175-1.27c.088-.239.233-.448.321-.69a3.158,3.158,0,0,0-.042-1.749,17.519,17.519,0,0,0,1.51-5.319l.562-3.036a2.959,2.959,0,0,1,.448-1.282,15.747,15.747,0,0,1,.341,4.083,6.06,6.06,0,0,0,.015,1.195c.069.435.249.845.354,1.273a15.515,15.515,0,0,1,.149,2.9c.019.391.07.783.087,1.174a13.775,13.775,0,0,1-1.078,5.05,18.742,18.742,0,0,0-.6,3.192c-.158,1.005-.315,2.012-.4,3.026-.024.309-.043.627-.081.941a2.438,2.438,0,0,0-.291-.046,1.316,1.316,0,0,1-.571-.149.665.665,0,0,1-.22-.333Z" transform="translate(-393.526 -337.015)" fill="url(#linear-gradient-3)"/>
    <path id="Path_237" data-name="Path 237" d="M463.613,813.9a1.212,1.212,0,0,1,.651.212.907.907,0,0,1,.272.5,1.32,1.32,0,0,1-.179,1.11,1.238,1.238,0,0,1-.5.376,3.257,3.257,0,0,1-2.2-.134l-2.82-.85a.948.948,0,0,1-.458-.238.621.621,0,0,1-.012-.724,1.414,1.414,0,0,1,.6-.476,6.714,6.714,0,0,1,2.838-.544c.358-.007.711-.085.954.191.128.149.106.308.3.435A1.294,1.294,0,0,0,463.613,813.9Z" transform="translate(-428.56 -701.477)" fill="#3f3d56"/>
    <path id="Path_238" data-name="Path 238" d="M427.943,803.523a1.2,1.2,0,0,1,.651.21.923.923,0,0,1,.272.5,1.319,1.319,0,0,1-.179,1.11,1.243,1.243,0,0,1-.5.378,3.259,3.259,0,0,1-2.2-.136l-2.82-.85a.934.934,0,0,1-.459-.237.621.621,0,0,1-.012-.724,1.4,1.4,0,0,1,.6-.476,6.7,6.7,0,0,1,2.83-.544c.357,0,.711-.085.954.191.128.149.106.309.3.435A1.316,1.316,0,0,0,427.943,803.523Z" transform="translate(-398.217 -692.649)" fill="#3f3d56"/>
    <path id="Path_239" data-name="Path 239" d="M425.615,600.082a34.728,34.728,0,0,0-5-.14.98.98,0,0,0-.324.051c-.367.149-.424.63-.46,1.025a36.3,36.3,0,0,1-1.195,4.644,13.258,13.258,0,0,0-.278,2.987,10.976,10.976,0,0,1-.024,1.344c-.046.4-.149.79-.206,1.195a10.684,10.684,0,0,0-.072,1.607,16.3,16.3,0,0,0,.149,2.52,18.3,18.3,0,0,1-.281,4.278,25.593,25.593,0,0,1-.344,3c-.082.418-.185.833-.242,1.256-.167,1.256.076,2.551-.187,3.789-.124.579-.345,1.231-.019,1.727.1.157.251.278.363.427a.542.542,0,0,1,.1.524c-.064.136-.214.226-.251.37-.06.229.181.417.4.514a4.126,4.126,0,0,0,4.8-1.187c-.188-.03-.418-.166-.423-.355a1.961,1.961,0,0,1,.122-.557,2.211,2.211,0,0,0,.042-.989c-.042-.229-.119-.448-.167-.68a6.3,6.3,0,0,1-.09-.768,12.636,12.636,0,0,0-.544-2.724,6.44,6.44,0,0,1,.2-2.624,5.144,5.144,0,0,1,.175-1.261c.088-.237.233-.448.321-.686a3.116,3.116,0,0,0-.042-1.737,17.335,17.335,0,0,0,1.51-5.284l.562-3.017a2.915,2.915,0,0,1,.448-1.273,15.548,15.548,0,0,1,.341,4.058,5.975,5.975,0,0,0,.015,1.178c.069.432.249.839.354,1.265a15.3,15.3,0,0,1,.149,2.883c.019.388.07.777.087,1.167a13.6,13.6,0,0,1-1.078,5.015,18.534,18.534,0,0,0-.6,3.171c-.158,1-.315,2-.4,3.007a4.765,4.765,0,0,1-.681,2.656,4.885,4.885,0,0,0,1.686.808,3.128,3.128,0,0,0,2.081-.4,6.573,6.573,0,0,0,1.643-1.4c-.122-.042-.166-.218-.178-.345-.178-1.889.539-3.734.811-5.616a11.948,11.948,0,0,0,.072-2.847c-.033-.357-.082-.712-.1-1.071-.07-1.87.829-3.67.8-5.54a9.974,9.974,0,0,1,.674-2.587,9.281,9.281,0,0,0,.208-2.314l.036-6.124a7.619,7.619,0,0,0-.266-2.458c-.329-.939.046-2.021.1-3.014a12.428,12.428,0,0,1-4.806.532Z" transform="translate(-393.441 -519.81)" fill="#3f3d56"/>
    <path id="Path_240" data-name="Path 240" d="M509.971,405.745a19.527,19.527,0,0,1,2.287-3.611,5.894,5.894,0,0,0,.508-.693,9.582,9.582,0,0,0,.62-1.821c.568-1.709,1.983-3.081,2.328-4.848a8.2,8.2,0,0,1,.814-1.792,2.26,2.26,0,0,1,.78-1.046,1.329,1.329,0,0,1,1.57.239,1.861,1.861,0,0,1,.479,1.576,1.316,1.316,0,0,1-.29.708,2.6,2.6,0,0,1-.833.5,3.271,3.271,0,0,0-1.606,1.836c-.5,1.443-.562,2.969-1.195,4.36s-1.377,2.727-1.925,4.151a14.3,14.3,0,0,1-1.013,2.39,2.941,2.941,0,0,1-2.025,1.485,5.087,5.087,0,0,0-.251-1.589C510.038,407,509.7,406.295,509.971,405.745Z" transform="translate(-472.47 -343.066)" fill="#a0616a"/>
    <path id="Path_241" data-name="Path 241" d="M430.921,403.293a8.283,8.283,0,0,0-.484-3.1,3.073,3.073,0,0,1-.285-1.172,2.866,2.866,0,0,1,.36-1.06,26.86,26.86,0,0,0,1.344-3.656l.747-2.336a3.735,3.735,0,0,0,.656-.62,3.307,3.307,0,0,0,.76-1.622,2.288,2.288,0,0,0-.42-1.716.992.992,0,0,0-.7-.426.9.9,0,0,0-.656.3,2.888,2.888,0,0,0-.562.959,4.255,4.255,0,0,0-.469,1.792c.019.517.214,1.093-.09,1.513a36.174,36.174,0,0,0-2.53,4.461,7.943,7.943,0,0,0-.511,1.119,6.2,6.2,0,0,0-.267,1.933,25.707,25.707,0,0,0,.329,3.656,3.267,3.267,0,0,0,.82,2.091A12.22,12.22,0,0,1,430.921,403.293Z" transform="translate(-402.668 -339.499)" fill="#a0616a"/>
    <circle id="Ellipse_42" data-name="Ellipse 42" cx="3.099" cy="3.099" r="3.099" transform="translate(28.955 58.179)" fill="#a0616a"/>
    <path id="Path_242" data-name="Path 242" d="M455.944,486.447a4.134,4.134,0,0,1-.668,1.546c-.178.3-.4.617-.747.65a14.935,14.935,0,0,0,2.814,1.132,3.2,3.2,0,0,0,1.029.166,2.513,2.513,0,0,0,.856-.22,4.249,4.249,0,0,0,2.411-2.838,5.592,5.592,0,0,1-1.15-.088.849.849,0,0,1-.565-.276.91.91,0,0,1-.117-.5q-.022-.775,0-1.55a6.124,6.124,0,0,0-2.252.276c-.3.1-.6.215-.9.291-.188.046-.706,0-.845.109C455.6,485.31,456,486.066,455.944,486.447Z" transform="translate(-425.396 -421.905)" fill="#a0616a"/>
    <path id="Path_243" data-name="Path 243" d="M437.416,485.126a1.949,1.949,0,0,0-1.482-1.73,3.424,3.424,0,0,1-.951-.221c-.49-.273-.638-.939-1.107-1.246a1.309,1.309,0,0,0-1.547.252,3.333,3.333,0,0,0-.784,1.476,7.431,7.431,0,0,0-.4,2.263,1.028,1.028,0,0,0,.066.415,1.742,1.742,0,0,0,.33.414,1.834,1.834,0,0,1,.448,1.458,4.128,4.128,0,0,0,.133,1.465c.3,1.316.6,2.633.836,3.961a2.521,2.521,0,0,1,.057.747,4.419,4.419,0,0,0-.2,1.059,4.02,4.02,0,0,1,.1.509,1.234,1.234,0,0,1-.09.378,18.875,18.875,0,0,0-1.246,4.282,25.9,25.9,0,0,1,5.577-.5,11.709,11.709,0,0,1,1.355.06,8.7,8.7,0,0,0,3.232.139c.971-.27,1.833-1.046,2.838-.947a7.557,7.557,0,0,0-.243-3.053,13.045,13.045,0,0,1-.448-7.069c.184-.845-.069-1.742.136-2.582a1.547,1.547,0,0,1,.223-.556.6.6,0,0,1,.512-.269,19.028,19.028,0,0,0-.373-4.022c-.1-.47-.308-1.026-.781-1.107-.427-.072-.787.288-1.129.554a3.085,3.085,0,0,1-1.195.562,1.124,1.124,0,0,0-.49.178c-.206.17-.234.478-.4.686-.3.372-.966.339-1.178.768a2.687,2.687,0,0,0-.114.393,1.436,1.436,0,0,1-.491.635A2.772,2.772,0,0,1,437.416,485.126Z" transform="translate(-405.501 -418.701)" fill="#fff"/>
    <path id="Path_244" data-name="Path 244" d="M456.031,443.681a.567.567,0,0,0-.121-.585c-.082-.064-.188-.088-.276-.149a1.2,1.2,0,0,1-.3-.378,1.622,1.622,0,0,0-2.033-.512c-.539.282-.866.847-1.344,1.229-.245.2-.527.344-.772.539a3.187,3.187,0,0,0-1,1.616,9.2,9.2,0,0,0-.27,1.907,1.713,1.713,0,0,0,.022.579,1.521,1.521,0,0,0,.22.441,4.969,4.969,0,0,0,1.957,1.81,3.035,3.035,0,0,0,2.608.046.465.465,0,0,0,.2-.161.561.561,0,0,0,.03-.345,2.367,2.367,0,0,1,.261-1.32c.149-.3.372-.556.493-.866a3.076,3.076,0,0,0,.14-1.072A11.5,11.5,0,0,1,456.031,443.681Z" transform="translate(-421.458 -385.698)" fill="#2d293d"/>
    <rect id="Rectangle_474" data-name="Rectangle 474" width="7.631" height="7.631" transform="translate(36.007 38.921)" fill="#fff"/>
    <path id="Path_245" data-name="Path 245" d="M520.576,359.3a1,1,0,0,1-.517.469,1.284,1.284,0,0,1-.411.078,1.159,1.159,0,0,1-.448-.055,1.029,1.029,0,0,1-.474-.378,2.388,2.388,0,0,1-.275-.55.609.609,0,0,1-.055-.311.448.448,0,0,0,.3-.169.378.378,0,0,0,.007-.3c-.009-.03-.018-.058-.028-.085-.022-.066-.1-.19-.046-.245s.179-.054.229-.076a2.158,2.158,0,0,1,.465-.208,1.13,1.13,0,0,1,.441.028.149.149,0,0,1,.055.021.129.129,0,0,1,.04.06c.042.1.066.214.1.318a.656.656,0,0,0,.164.291.825.825,0,0,0,.228.137l.2.091a.286.286,0,0,1,.094.061.246.246,0,0,1,.045.122A1.146,1.146,0,0,1,520.576,359.3Z" transform="translate(-479.722 -313.881)" fill="#a0616a"/>
    <path id="Path_246" data-name="Path 246" d="M521.172,357.931a1.038,1.038,0,0,1-1.253.187c-.009-.03-.018-.058-.028-.085-.022-.066-.1-.19-.046-.245s.179-.054.229-.076a2.153,2.153,0,0,1,.465-.208,1.128,1.128,0,0,1,.441.028.149.149,0,0,1,.055.021.128.128,0,0,1,.04.06C521.115,357.719,521.139,357.826,521.172,357.931Z" transform="translate(-480.939 -313.907)" opacity="0.1"/>
    <circle id="Ellipse_43" data-name="Ellipse 43" cx="1.037" cy="1.037" r="1.037" transform="translate(38.449 42.224)" fill="#a0616a"/>
    <path id="Path_247" data-name="Path 247" d="M514.633,365.375h-4.878c-.149-.333-.284-.668-.435-1h0a.694.694,0,0,1,.088-.224.243.243,0,0,1,.2-.112c.043,0,.093.016.124-.015s.021-.057.043-.078a.182.182,0,0,1,.118-.018.27.27,0,0,0,.23-.115.366.366,0,0,1,.058-.076.333.333,0,0,1,.125-.033c.121-.027.193-.149.284-.226a.17.17,0,0,1,.179-.049.111.111,0,0,1,.037.031.338.338,0,0,1,.049.124,1.108,1.108,0,0,0,.39.629.884.884,0,0,0,1.335-.333,1.74,1.74,0,0,0,.122-.566v-.025a.427.427,0,0,1,.355.07,2,2,0,0,0,.317.2c.133.052.3.052.39.149.039.039.066.093.115.117a.342.342,0,0,0,.1.022.566.566,0,0,1,.375.329,2.555,2.555,0,0,1,.209.756Z" transform="translate(-472.003 -318.825)" fill="#f86d70"/>
    <path id="Path_248" data-name="Path 248" d="M514.5,342.954a.786.786,0,0,0-.181.209,1.029,1.029,0,0,1-.361.355.449.449,0,0,0-.166.1.277.277,0,0,0-.043.117,2.185,2.185,0,0,0-.046.441.471.471,0,0,0,.036.218c.03.063.087.117.1.185a.542.542,0,0,1-.018.161.14.14,0,0,0,.055.149.38.38,0,0,0,.084.019c.149.033.2.209.223.354.051,0,.073-.061.085-.109l.149-.695c.018-.075.045-.163.121-.188a.378.378,0,0,1,.158,0c.206.018.379-.142.581-.187a.794.794,0,0,1,.2-.012c.158,0,.344.073.378.221a.074.074,0,0,0,.031.066.126.126,0,0,0,.07,0c.1-.01.16.1.19.2l.1.339c.016.051.043.112.1.118a.1.1,0,0,0,.1-.091.414.414,0,0,0-.021-.149,1.616,1.616,0,0,1,.073-.671.735.735,0,0,0-.1-.65c-.057-.061-.131-.108-.184-.173s-.076-.136-.127-.2a1.3,1.3,0,0,0-.724-.317A1.485,1.485,0,0,0,514.5,342.954Z" transform="translate(-475.73 -301.375)" fill="#3f3d56"/>
    <g id="Group_20" data-name="Group 20" transform="translate(37.973 42.396)" opacity="0.1">
      <path id="Path_249" data-name="Path 249" d="M517.021,351.4c-.055,0-.082-.067-.1-.118l-.1-.339c-.03-.093-.09-.206-.19-.2a.126.126,0,0,1-.07,0c-.022-.012-.025-.04-.031-.066-.034-.149-.22-.214-.378-.221a.73.73,0,0,0-.2.013c-.2.043-.375.2-.581.185a.437.437,0,0,0-.158,0c-.076.027-.1.114-.121.19-.052.232-.1.463-.149.693-.012.048-.034.106-.085.109-.022-.149-.073-.321-.223-.354a.31.31,0,0,1-.084-.019.094.094,0,0,1-.043-.049.486.486,0,0,1-.012.064.14.14,0,0,0,.055.149.383.383,0,0,0,.084.019c.149.033.2.209.223.354.051,0,.073-.061.085-.109.052-.231.1-.463.149-.695.018-.075.045-.163.121-.188a.378.378,0,0,1,.158,0c.206.018.379-.142.581-.187a.793.793,0,0,1,.2-.012c.158,0,.344.073.378.221a.074.074,0,0,0,.031.066.126.126,0,0,0,.07,0c.1-.01.16.1.19.2l.1.339c.016.051.043.112.1.118a.1.1,0,0,0,.1-.091.3.3,0,0,0-.015-.12A.092.092,0,0,1,517.021,351.4Z" transform="translate(-514.375 -350.318)"/>
      <path id="Path_250" data-name="Path 250" d="M513.844,352.07c-.01-.069-.067-.122-.1-.185a.38.38,0,0,1-.034-.134v.075a.472.472,0,0,0,.036.218c.024.051.066.1.087.149A.333.333,0,0,0,513.844,352.07Z" transform="translate(-513.711 -351.417)"/>
      <path id="Path_251" data-name="Path 251" d="M531.984,349.693a1.942,1.942,0,0,0-.085.6,3.629,3.629,0,0,1,.085-.436,1.146,1.146,0,0,0,.025-.335A1.348,1.348,0,0,1,531.984,349.693Z" transform="translate(-529.182 -349.52)"/>
    </g>
    <path id="Path_252" data-name="Path 252" d="M508.214,370.915H507.05a3.658,3.658,0,0,1,.273-.908.207.207,0,0,1,.049-.079.071.071,0,0,1,.016-.013c.034-.027.082-.037.119-.063s.042-.052.076-.063a1.033,1.033,0,0,1,.379.063.38.38,0,0,1,.1.025.337.337,0,0,1,.158.194A1.834,1.834,0,0,1,508.214,370.915Z" transform="translate(-470.072 -324.365)" fill="#f86d70"/>
  </g>
</svg>
